<svg width="12" height="12" viewBox="0 0 12 12" fill="none" xmlns="http://www.w3.org/2000/svg">
<path d="M11.0088 5.49844C10.837 5.27039 10.1988 5.11336 9.92877 4.70297C9.65877 4.29258 9.43775 3.40383 8.75057 3.06234C8.06338 2.72086 6.74994 2.625 5.99994 2.625C5.24994 2.625 3.93744 2.71875 3.24932 3.06164C2.56119 3.40453 2.34111 4.29258 2.07111 4.70227C1.80111 5.11195 1.16291 5.27039 0.991113 5.49844C0.819316 5.72648 0.698379 7.16813 0.771972 7.875C0.845566 8.58187 0.98291 9 0.98291 9H2.99853C3.32853 9 3.43588 8.87602 4.11088 8.8125C4.8515 8.74219 5.57807 8.71875 5.99994 8.71875C6.42182 8.71875 7.17182 8.74219 7.91197 8.8125C8.58697 8.87648 8.69783 9 9.02432 9H11.0165C11.0165 9 11.1538 8.58187 11.2274 7.875C11.301 7.16813 11.1796 5.72648 11.0088 5.49844ZM9.37494 9H10.6874V9.375H9.37494V9ZM1.31244 9H2.62494V9.375H1.31244V9Z" stroke="#353888" stroke-linecap="round" stroke-linejoin="round"/>
<path d="M8.54233 7.24592C8.40381 7.08584 7.95241 6.95225 7.35475 6.86272C6.75709 6.77319 6.53913 6.74998 6.00475 6.74998C5.47038 6.74998 5.22733 6.78842 4.65452 6.86272C4.0817 6.93701 3.65163 7.0692 3.46717 7.24592C3.19038 7.51405 3.59584 7.81498 3.91413 7.85155C4.22256 7.8867 4.8392 7.87381 6.00733 7.87381C7.17545 7.87381 7.79209 7.8867 8.10053 7.85155C8.41834 7.81287 8.79475 7.5328 8.54233 7.24592ZM10.115 5.69647C10.1137 5.67785 10.1055 5.66038 10.0921 5.6474C10.0787 5.63443 10.061 5.62686 10.0423 5.62616C9.76553 5.61631 9.48452 5.636 8.986 5.78295C8.73167 5.85721 8.49284 5.97679 8.281 6.13592C8.22756 6.17764 8.24655 6.29037 8.31358 6.30233C8.72448 6.35054 9.13783 6.3748 9.55155 6.37498C9.79975 6.37498 10.0559 6.30467 10.1035 6.08342C10.1278 5.95585 10.1316 5.82525 10.115 5.69647ZM1.88514 5.69647C1.88646 5.67785 1.8946 5.66038 1.90801 5.6474C1.92142 5.63443 1.93915 5.62686 1.9578 5.62616C2.23459 5.61631 2.51561 5.636 3.01413 5.78295C3.26846 5.85721 3.50729 5.97679 3.71913 6.13592C3.77256 6.17764 3.75358 6.29037 3.68655 6.30233C3.27565 6.35054 2.86229 6.3748 2.44858 6.37498C2.20038 6.37498 1.9442 6.30467 1.89663 6.08342C1.87236 5.95585 1.86849 5.82525 1.88514 5.69647Z" fill="#353888"/>
<path d="M10.125 4.5H10.5M1.5 4.5H1.875M1.82812 4.94531C1.82812 4.94531 2.91445 4.66406 6 4.66406C9.08555 4.66406 10.1719 4.94531 10.1719 4.94531" stroke="#353888" stroke-linecap="round" stroke-linejoin="round"/>
</svg>
