<svg width="12" height="12" viewBox="0 0 12 12" fill="none" xmlns="http://www.w3.org/2000/svg">
<path d="M1.75781 10.8594H7.75781M2.25781 4.35938H7.25781M7.25781 10.8594V1.85938C7.25781 1.59416 7.15246 1.3398 6.96492 1.15227C6.77738 0.964732 6.52303 0.859375 6.25781 0.859375H3.25781C2.9926 0.859375 2.73824 0.964732 2.55071 1.15227C2.36317 1.3398 2.25781 1.59416 2.25781 1.85938V10.8594M7.25781 6.35938H8.25781C8.52303 6.35938 8.77738 6.46473 8.96492 6.65227C9.15246 6.8398 9.25781 7.09416 9.25781 7.35938V8.35938C9.25781 8.62459 9.36317 8.87895 9.55071 9.06648C9.73824 9.25402 9.9926 9.35938 10.2578 9.35938C10.523 9.35938 10.7774 9.25402 10.9649 9.06648C11.1525 8.87895 11.2578 8.62459 11.2578 8.35938V4.77437C11.2579 4.64242 11.2319 4.51175 11.1813 4.38989C11.1306 4.26803 11.0564 4.1574 10.9628 4.06437L9.25781 2.35938" stroke="#353888" stroke-linecap="round" stroke-linejoin="round"/>
</svg>
