<svg width="12" height="12" viewBox="0 0 12 12" fill="none" xmlns="http://www.w3.org/2000/svg">
<path d="M2.5 4C2.23478 4 1.98043 3.89464 1.79289 3.70711C1.60536 3.51957 1.5 3.26522 1.5 3C1.5 2.73478 1.60536 2.48043 1.79289 2.29289C1.98043 2.10536 2.23478 2 2.5 2C2.76522 2 3.01957 2.10536 3.20711 2.29289C3.39464 2.48043 3.5 2.73478 3.5 3C3.5 3.26522 3.39464 3.51957 3.20711 3.70711C3.01957 3.89464 2.76522 4 2.5 4ZM2.5 4V8M6 4C5.73478 4 5.48043 3.89464 5.29289 3.70711C5.10536 3.51957 5 3.26522 5 3C5 2.73478 5.10536 2.48043 5.29289 2.29289C5.48043 2.10536 5.73478 2 6 2C6.26522 2 6.51957 2.10536 6.70711 2.29289C6.89464 2.48043 7 2.73478 7 3C7 3.26522 6.89464 3.51957 6.70711 3.70711C6.51957 3.89464 6.26522 4 6 4ZM6 4V8M2.5 8C2.76522 8 3.01957 8.10536 3.20711 8.29289C3.39464 8.48043 3.5 8.73478 3.5 9C3.5 9.26522 3.39464 9.51957 3.20711 9.70711C3.01957 9.89464 2.76522 10 2.5 10C2.23478 10 1.98043 9.89464 1.79289 9.70711C1.60536 9.51957 1.5 9.26522 1.5 9C1.5 8.73478 1.60536 8.48043 1.79289 8.29289C1.98043 8.10536 2.23478 8 2.5 8ZM6 8C6.26522 8 6.51957 8.10536 6.70711 8.29289C6.89464 8.48043 7 8.73478 7 9C7 9.26522 6.89464 9.51957 6.70711 9.70711C6.51957 9.89464 6.26522 10 6 10C5.73478 10 5.48043 9.89464 5.29289 9.70711C5.10536 9.51957 5 9.26522 5 9C5 8.73478 5.10536 8.48043 5.29289 8.29289C5.48043 8.10536 5.73478 8 6 8ZM8.5 3C8.5 3.26522 8.60536 3.51957 8.79289 3.70711C8.98043 3.89464 9.23478 4 9.5 4C9.76522 4 10.0196 3.89464 10.2071 3.70711C10.3946 3.51957 10.5 3.26522 10.5 3C10.5 2.73478 10.3946 2.48043 10.2071 2.29289C10.0196 2.10536 9.76522 2 9.5 2C9.23478 2 8.98043 2.10536 8.79289 2.29289C8.60536 2.48043 8.5 2.73478 8.5 3Z" stroke="#353888" stroke-width="0.75" stroke-linecap="round" stroke-linejoin="round"/>
<path d="M9.5 4V5C9.5 5.26522 9.39464 5.51957 9.20711 5.70711C9.01957 5.89464 8.76522 6 8.5 6H2.5" stroke="#353888" stroke-width="0.75" stroke-linecap="round" stroke-linejoin="round"/>
</svg>
