<svg width="21" height="20" viewBox="0 0 21 20" fill="none" xmlns="http://www.w3.org/2000/svg">
<path fill-rule="evenodd" clip-rule="evenodd" d="M2.54954 2.15515C2.86138 1.84259 3.28433 1.66699 3.72534 1.66699H17.0281C17.4691 1.66699 17.8921 1.84259 18.2039 2.15515C18.5157 2.46771 18.6909 2.89163 18.6909 3.33366V5.48866C18.6908 5.93061 18.5156 6.3546 18.2038 6.66708C18.2038 6.66711 18.2038 6.66705 18.2038 6.66708L12.8711 12.0121L12.871 14.167C12.871 14.388 12.7834 14.6 12.6275 14.7562L9.30178 18.0896C9.064 18.3279 8.70639 18.3992 8.3957 18.2702C8.08502 18.1412 7.88245 17.8374 7.88245 17.5003V12.0122L2.54971 6.66717C2.54968 6.66714 2.54974 6.6672 2.54971 6.66717C2.2379 6.35469 2.06259 5.93079 2.0625 5.48884V3.33366C2.0625 2.89163 2.23769 2.46771 2.54954 2.15515ZM17.0281 3.33366H3.72534V5.48848L9.05808 10.8335C9.05805 10.8335 9.05811 10.8335 9.05808 10.8335C9.36989 11.146 9.5452 11.5699 9.5453 12.0118V15.4885L11.2081 13.8218V12.012C11.2082 11.57 11.3835 11.146 11.6953 10.8336C11.6952 10.8336 11.6953 10.8335 11.6953 10.8336L17.028 5.48857L17.0281 3.33366Z" fill="#4044A5"/>
</svg>
