<svg width="22" height="20" viewBox="0 0 22 20" fill="none" xmlns="http://www.w3.org/2000/svg">
<path fill-rule="evenodd" clip-rule="evenodd" d="M11.4863 13.5666C11.3574 13.6837 11.1826 13.7494 11.0004 13.7494C10.8182 13.7494 10.6435 13.6837 10.5146 13.5666L3.6396 7.31663C3.51816 7.19815 3.45204 7.04145 3.45519 6.87953C3.45833 6.71761 3.53048 6.56312 3.65644 6.44861C3.7824 6.3341 3.95234 6.26851 4.13045 6.26565C4.30856 6.2628 4.48094 6.3229 4.61126 6.4333L11.0004 12.2416L17.3896 6.4333C17.4525 6.37189 17.5284 6.32264 17.6128 6.28848C17.6971 6.25432 17.7881 6.23595 17.8805 6.23447C17.9728 6.23299 18.0645 6.24843 18.1501 6.27986C18.2357 6.3113 18.3134 6.35808 18.3787 6.41743C18.444 6.47678 18.4955 6.54748 18.53 6.6253C18.5646 6.70312 18.5816 6.78648 18.58 6.8704C18.5783 6.95432 18.5581 7.03708 18.5206 7.11375C18.483 7.19041 18.4288 7.25941 18.3613 7.31663L11.4863 13.5666Z" fill="#353888"/>
</svg>
