<svg width="34" height="28" viewBox="0 0 34 28" fill="none" xmlns="http://www.w3.org/2000/svg">
<path d="M9.06494 0.962383C8.81259 1.00613 8.32119 1.15926 7.97587 1.29598C6.80712 1.75535 5.91064 2.67957 5.57197 3.75691C5.4458 4.17254 5.43916 4.45144 5.37275 15.2905C5.29306 27.5952 5.2665 26.6382 5.73798 26.9335C6.06337 27.1413 6.48173 27.1741 6.83369 27.0264C6.97314 26.9663 9.32392 25.7796 12.0466 24.396L17.0005 21.8804L22.1337 24.4889L27.2603 27.0975H27.6388C28.0438 27.0975 28.263 27.0046 28.5153 26.7202L28.6548 26.5725V15.2686V3.96473L28.4755 3.52723C28.2231 2.92019 27.8712 2.45535 27.3267 2.00145C26.7888 1.55301 26.2177 1.26316 25.4673 1.04988L24.936 0.902225L17.2329 0.891289C10.6388 0.88582 9.46337 0.896757 9.06494 0.962383Z" fill="#353888"/>
</svg>
