<svg width="24" height="24" viewBox="0 0 24 24" fill="none" xmlns="http://www.w3.org/2000/svg">
<path d="M10.8049 3.49219C10.6924 3.6 10.6877 3.63281 10.6877 4.14844V4.6875H9.61423C8.46579 4.6875 7.82829 4.73438 7.16267 4.87031C6.75017 4.95469 6.59079 5.04375 6.53923 5.20781C6.52517 5.25 6.64236 5.82188 6.79704 6.47813C7.04079 7.48594 7.10173 7.67813 7.20017 7.76719C7.34079 7.89375 7.33611 7.89375 7.78142 7.8C8.02986 7.74844 8.50798 7.72031 9.41267 7.70156L10.6877 7.67813V8.22188C10.6877 8.74219 10.6924 8.775 10.8049 8.88281C10.9877 9.07031 11.1799 9.04219 11.4095 8.79844C12.3095 7.85625 13.6267 6.39375 13.6595 6.3C13.6877 6.22969 13.6877 6.14531 13.6595 6.075C13.6267 5.98125 12.3095 4.51875 11.4095 3.57656C11.1799 3.33281 10.9877 3.30469 10.8049 3.49219ZM12.2299 5.56406L12.8064 6.1875L12.1314 6.91875L11.4611 7.64531L11.4377 7.38281C11.4189 7.17188 11.3861 7.09688 11.297 7.02188C11.1845 6.93281 11.1283 6.92813 9.63298 6.95625C8.78454 6.97031 8.00173 6.99375 7.89861 7.00781L7.71111 7.04063L7.55173 6.38906C7.46736 6.03281 7.38767 5.70938 7.37829 5.66719C7.34079 5.53125 7.95954 5.47031 9.67048 5.44219L11.2595 5.41406L11.3486 5.30156C11.4095 5.22656 11.4377 5.11875 11.4377 4.95469V4.71094L11.5502 4.82813C11.6111 4.89375 11.9158 5.22656 12.2299 5.56406Z" fill="#F73639"/>
<path d="M4.64063 5.775C3.47813 6.45937 2.77969 7.01718 2.11875 7.79062L1.76719 8.19843L1.49531 8.05781C1.34531 7.98281 1.16719 7.92187 1.10156 7.92187C0.965625 7.92187 0.75 8.10937 0.75 8.22656C0.75 8.54062 1.14375 11.3859 1.2 11.4703C1.2375 11.5312 1.31719 11.5875 1.37813 11.6062C1.47188 11.6297 4.11094 11.1375 4.55625 11.0156C4.75313 10.9594 4.875 10.8141 4.875 10.6406C4.87031 10.4906 4.82344 10.4344 4.48125 10.1531L4.2 9.92812L4.66875 9.47343C5.10469 9.04687 5.52656 8.72812 6.05625 8.42343C6.29063 8.2875 6.375 8.17968 6.375 8.02031C6.375 7.90312 5.37188 5.92968 5.23594 5.775C5.11406 5.64375 4.86563 5.64375 4.64063 5.775ZM5.15156 7.19062C5.33438 7.53281 5.48438 7.82812 5.48438 7.84218C5.48438 7.85625 5.30156 7.99687 5.07656 8.15156C4.54688 8.5125 4.01719 9 3.63281 9.48281C3.26719 9.9375 3.23906 10.0969 3.47344 10.3125L3.61875 10.4437L3.39375 10.4906C2.49375 10.6781 1.87031 10.7906 1.84219 10.7625C1.81875 10.7391 1.6125 9.30468 1.59375 9.04218C1.59375 9.02812 1.69688 9.02343 1.82344 9.0375L2.04844 9.05625L2.325 8.71406C2.68125 8.25937 3.22969 7.69687 3.61875 7.37343C3.93281 7.11562 4.72969 6.56718 4.79063 6.5625C4.80938 6.5625 4.96875 6.84375 5.15156 7.19062Z" fill="#F73639"/>
<path d="M6.5626 10.575C6.05635 10.7109 5.86885 10.8797 4.79073 12.1453C4.40167 12.6047 4.09229 12.9187 3.97042 12.9891C3.7876 13.0922 3.71729 13.1016 2.85948 13.125C1.81885 13.1531 1.72042 13.1812 1.41104 13.5281C1.12979 13.8469 1.11573 13.9547 1.13448 15.5906C1.15323 16.9547 1.1626 17.0578 1.26104 17.3297C1.54698 18.1078 2.14698 18.7078 2.93448 18.9937C3.1501 19.0687 3.35635 19.0969 3.87667 19.1156L4.5376 19.1344L4.56573 19.2937C4.62667 19.5984 4.9126 20.0859 5.19385 20.3531C6.09385 21.2109 7.40635 21.2109 8.30635 20.3531C8.5876 20.0859 8.87354 19.5984 8.93448 19.2844L8.9626 19.125H12.7501H16.5376L16.5657 19.2844C16.6267 19.5984 16.9126 20.0859 17.1939 20.3531C18.0939 21.2109 19.4064 21.2109 20.3064 20.3531C20.5876 20.0859 20.8735 19.5984 20.9345 19.2891L20.9626 19.1344L21.5814 19.1156C22.1907 19.1016 22.2142 19.0969 22.5564 18.9234C22.9829 18.7172 23.2454 18.4453 23.4517 18.0094L23.6017 17.6953V16.5234V15.3516L23.4517 15.0375C23.372 14.8641 23.2173 14.6297 23.1142 14.5172C22.7767 14.1516 22.5282 14.0578 20.7657 13.6172C19.8751 13.3969 19.0642 13.1812 18.961 13.1437C18.8579 13.1016 18.0376 12.6 17.1329 12.0281C15.361 10.8984 15.1923 10.8 14.6954 10.6359L14.3673 10.5234L10.5939 10.5141C7.37354 10.5047 6.78292 10.5141 6.5626 10.575ZM14.3017 11.3156C14.7423 11.4094 14.911 11.5078 16.7814 12.6937C17.6954 13.275 18.5439 13.7906 18.6657 13.8375C18.7876 13.8844 19.6126 14.1 20.4939 14.325C21.3798 14.5453 22.1673 14.7562 22.2564 14.7984C22.4626 14.8969 22.7532 15.2344 22.8189 15.4594C22.8517 15.5719 22.8751 15.9891 22.8751 16.5328C22.8751 17.5687 22.8376 17.7375 22.5329 18.0375C22.261 18.3047 22.0314 18.375 21.4454 18.375H20.9626L20.9345 18.2203C20.8829 17.9391 20.6392 17.5031 20.3673 17.2125C19.711 16.5 18.6704 16.3125 17.7657 16.7391C17.2267 16.9922 16.6642 17.6859 16.5657 18.2203L16.5376 18.375H12.7501H8.9626L8.93448 18.2203C8.88292 17.9391 8.63917 17.5031 8.36729 17.2125C7.71104 16.5 6.67042 16.3125 5.76573 16.7391C5.22198 16.9969 4.66417 17.6859 4.56573 18.2297L4.53292 18.3844L3.91417 18.3656C3.30948 18.3516 3.28604 18.3469 2.94385 18.1734C2.51729 17.9672 2.25479 17.6953 2.04854 17.2594L1.89854 16.9453L1.88448 15.5344C1.87042 14.1937 1.8751 14.1234 1.95948 14.0109C2.05323 13.8984 2.07198 13.8984 2.9626 13.8703C4.32198 13.8328 4.34073 13.8234 5.51729 12.45C6.30479 11.5312 6.42198 11.4187 6.68917 11.3203C6.95167 11.2266 13.847 11.2219 14.3017 11.3156ZM7.3876 17.4C7.67823 17.5359 7.96417 17.8172 8.10948 18.1172C8.27354 18.4547 8.27354 19.0453 8.10948 19.3828C7.96417 19.6828 7.68292 19.9641 7.38292 20.1094C7.04542 20.2734 6.45479 20.2734 6.11729 20.1094C5.81729 19.9641 5.53604 19.6828 5.39073 19.3828C5.22667 19.05 5.22667 18.4594 5.39073 18.1172C5.5876 17.7141 5.96729 17.4047 6.39854 17.2922C6.6376 17.2266 7.13917 17.2828 7.3876 17.4ZM19.3876 17.4C19.6782 17.5359 19.9642 17.8172 20.1095 18.1172C20.2735 18.4547 20.2735 19.0453 20.1095 19.3828C19.9642 19.6828 19.6829 19.9641 19.3829 20.1094C19.0454 20.2734 18.4548 20.2734 18.1173 20.1094C17.8173 19.9641 17.536 19.6828 17.3907 19.3828C17.2267 19.05 17.2267 18.4594 17.3907 18.1172C17.5876 17.7141 17.9673 17.4047 18.3985 17.2922C18.6376 17.2266 19.1392 17.2828 19.3876 17.4Z" fill="#F73639"/>
<path d="M6.49214 18.4922C6.25777 18.7219 6.42183 19.125 6.74995 19.125C6.83902 19.125 6.93745 19.0828 7.00777 19.0078C7.08277 18.9375 7.12495 18.8391 7.12495 18.75C7.12495 18.6609 7.08277 18.5625 7.00777 18.4922C6.93745 18.4172 6.83902 18.375 6.74995 18.375C6.66089 18.375 6.56245 18.4172 6.49214 18.4922Z" fill="#F73639"/>
<path d="M18.4921 18.4922C18.2578 18.7219 18.4218 19.125 18.75 19.125C18.9421 19.125 19.125 18.9422 19.125 18.75C19.125 18.5578 18.9421 18.375 18.75 18.375C18.6609 18.375 18.5625 18.4172 18.4921 18.4922Z" fill="#F73639"/>
</svg>
