<svg width="9" height="9" viewBox="0 0 9 9" fill="none" xmlns="http://www.w3.org/2000/svg">
<g clip-path="url(#clip0_725_70)">
<path d="M4.09614 0.0175657C3.22778 0.10194 2.42622 0.421863 1.7231 0.963268C1.38032 1.22694 0.935596 1.72264 0.678955 2.12694C0.568213 2.30096 0.352002 2.74393 0.274658 2.95487C0.188525 3.19042 0.0953613 3.55253 0.0496582 3.83202C-0.00483399 4.17479 -0.00483399 4.82518 0.0496582 5.16796C0.12876 5.65311 0.253564 6.04335 0.46626 6.47753C0.698291 6.95038 0.939111 7.28612 1.32583 7.6746C1.71431 8.06132 2.05005 8.30214 2.5229 8.53417C2.95708 8.74686 3.34731 8.87167 3.83247 8.95077C4.17524 9.00526 4.82563 9.00526 5.16841 8.95077C5.65356 8.87167 6.0438 8.74686 6.47798 8.53417C6.95083 8.30214 7.28657 8.06132 7.67505 7.6746C8.06177 7.28612 8.30259 6.95038 8.53462 6.47753C8.68931 6.16288 8.76665 5.95721 8.85103 5.64081C8.96177 5.21893 8.98814 4.98866 8.98814 4.49999C8.98814 4.01132 8.96177 3.78104 8.85103 3.35917C8.76665 3.04276 8.68931 2.8371 8.53462 2.52245C8.30259 2.0496 8.06177 1.71385 7.67505 1.32538C7.28657 0.93866 6.95083 0.697839 6.47798 0.465808C6.04556 0.253113 5.64478 0.12655 5.1772 0.052722C4.9188 0.0122919 4.34224 -0.00704384 4.09614 0.0175657ZM5.04536 0.625769C5.69927 0.717175 6.30044 0.966784 6.85591 1.37811C7.07036 1.53632 7.46411 1.93007 7.62231 2.14452C8.0354 2.70175 8.27798 3.28885 8.37817 3.96385C8.4186 4.24862 8.4186 4.75135 8.37817 5.03612C8.24985 5.90624 7.88071 6.641 7.26196 7.26151C6.64146 7.88026 5.90669 8.2494 5.03657 8.37772C4.75181 8.41815 4.24907 8.41815 3.96431 8.37772C3.09419 8.2494 2.35942 7.88026 1.73892 7.26151C1.12017 6.641 0.751025 5.90624 0.622705 5.03612C0.582275 4.75135 0.582275 4.24862 0.622705 3.96385C0.751025 3.09374 1.12017 2.35897 1.73892 1.73846C2.3313 1.14608 3.03794 0.780457 3.85005 0.641589C4.22095 0.578308 4.66392 0.571277 5.04536 0.625769Z" fill="#F2F0F5"/>
<path d="M4.386 2.40293C4.36666 2.40644 4.28756 2.42226 4.21022 2.43633C3.6108 2.55234 3.06061 2.96894 2.77232 3.52793C2.22564 4.58789 2.64752 5.86758 3.71979 6.39668C4.20846 6.6375 4.80611 6.67441 5.31764 6.49863C5.6815 6.37207 5.95221 6.19453 6.20533 5.91504C6.46549 5.62851 6.51822 5.49141 6.42682 5.33672C6.3776 5.2541 6.26861 5.18555 6.18248 5.18555C6.08229 5.18555 5.99264 5.24004 5.91178 5.35078C5.60768 5.76738 5.2069 5.99062 4.71295 6.02226C4.31744 6.04863 3.90611 5.8957 3.60377 5.61269C3.33131 5.35605 3.17662 5.05019 3.12916 4.67051C3.094 4.3998 3.15201 4.06406 3.27154 3.82676C3.54576 3.28359 4.12936 2.93906 4.71295 2.97773C4.94498 2.9918 5.12779 3.04277 5.34225 3.15C5.49693 3.22734 5.54791 3.26426 5.68502 3.39961C5.77291 3.4875 5.88014 3.6 5.92408 3.65098C6.02076 3.75996 6.11568 3.79512 6.22994 3.76172C6.37936 3.71777 6.47252 3.5543 6.43385 3.41016C6.411 3.32402 6.25455 3.12539 6.07525 2.95664C5.77643 2.67363 5.38971 2.48379 4.97486 2.41699C4.82193 2.39238 4.47213 2.38359 4.386 2.40293Z" fill="#F2F0F5"/>
</g>
<defs>
<clipPath id="clip0_725_70">
<rect width="9" height="9" fill="white"/>
</clipPath>
</defs>
</svg>
