<svg width="16" height="16" viewBox="0 0 16 16" fill="none" xmlns="http://www.w3.org/2000/svg">
<path fill-rule="evenodd" clip-rule="evenodd" d="M16 8C16 12.4182 12.4182 16 8 16C3.58172 16 0 12.4182 0 8C0 3.58172 3.58172 0 8 0C12.4182 0 16 3.58172 16 8ZM4.004 5.6C4.004 5.16 4.36 4.8 4.8 4.8H11.2C11.64 4.8 12 5.16 12 5.6V10.4C12 10.84 11.64 11.2 11.2 11.2H4.8C4.36 11.2 4 10.84 4 10.4L4.004 5.6ZM8 8.4L4.80001 6.39998V10.4H11.2V6.39998L8 8.4ZM8 7.6L4.80001 5.60001H11.2L8 7.6Z" fill="#F2F0F5"/>
</svg>
