<svg width="18" height="18" viewBox="0 0 18 18" fill="none" xmlns="http://www.w3.org/2000/svg">
<path d="M0.600066 0.0787506C0.375041 0.180001 0.198772 0.356249 0.0900098 0.581249L0 0.768749V8.96249C0 14.4937 0.0112512 17.2012 0.0375041 17.295C0.0975106 17.5087 0.300033 17.745 0.525057 17.8687L0.73133 17.9812L5.16806 17.9925L9.60105 18V14.5125V11.025H8.43842H7.27579V9.65624V8.28749H8.43842H9.60105V7.16999C9.60105 5.59125 9.67231 5.13 10.0098 4.44375C10.5424 3.37125 11.4875 2.805 12.8939 2.715C13.2389 2.6925 14.7466 2.7525 15.0504 2.80125L15.1892 2.82375V4.035V5.24625L14.2253 5.2575C13.4227 5.2725 13.2277 5.28375 13.0852 5.34C12.8189 5.4375 12.6201 5.62875 12.5226 5.88C12.4401 6.0825 12.4364 6.15375 12.4214 7.18874L12.4064 8.28749H13.7603C14.5066 8.28749 15.1142 8.29874 15.1142 8.31749C15.1142 8.33249 15.0391 8.92499 14.9454 9.63749C14.8516 10.35 14.7766 10.9537 14.7766 10.9762C14.7766 11.0137 14.5141 11.025 13.5952 11.025H12.4139V14.5125V18H14.7504C17.4544 18 17.3644 18.0075 17.6907 17.685C18.032 17.3437 18.0057 18.18 17.9945 8.90624L17.9832 0.731249L17.8707 0.525C17.7469 0.3 17.5107 0.0975003 17.2969 0.0375004C17.2031 0.0112504 14.4953 0 8.96348 0C0.802588 0 0.768834 0.00375067 0.600066 0.0787506Z" fill="#F2F0F5"/>
</svg>
