<svg width="24" height="24" viewBox="0 0 24 24" fill="none" xmlns="http://www.w3.org/2000/svg">
<path d="M11.109 0.0515614C7.83245 0.43125 5.11839 2.78906 4.2887 5.97656C3.93714 7.33125 3.96057 8.92969 4.34495 10.2656C4.80901 11.8828 5.58245 13.1297 8.17464 16.4297C8.68089 17.0719 9.09339 17.6156 9.09339 17.6297C9.09339 17.6484 8.98557 17.6766 8.84964 17.6906C7.63089 17.8547 5.96214 18.4359 5.17464 18.975C4.78089 19.2422 4.33089 19.7297 4.18089 20.0484C4.07307 20.2781 4.05432 20.3812 4.05432 20.7187C4.05901 21.225 4.19026 21.5344 4.57932 21.9422C5.24495 22.6453 6.26682 23.1469 7.80432 23.5266C9.14495 23.8594 10.2418 23.9766 12.0231 23.9719C13.4856 23.9719 14.2309 23.9156 15.3278 23.7187C17.6481 23.2969 19.3356 22.4203 19.8184 21.3891C19.9215 21.1641 19.9403 21.0516 19.9449 20.7187C19.9449 20.2078 19.8137 19.9031 19.3965 19.4672C19.0449 19.1016 18.7403 18.8859 18.1403 18.5859C17.4278 18.225 16.0121 17.8031 15.1543 17.6906C15.0184 17.6766 14.9059 17.6484 14.9059 17.6297C14.9059 17.6156 15.4262 16.9406 16.0543 16.1297C18.1637 13.4344 18.8996 12.2953 19.434 10.9219C19.7949 9.975 19.9449 9.13125 19.9403 7.99219C19.9403 7.00781 19.8699 6.50625 19.6356 5.70469C18.5387 2.01562 14.9153 -0.384377 11.109 0.0515614ZM13.3824 1.07812C15.8481 1.59844 17.8496 3.35156 18.6465 5.69531C18.9231 6.50156 19.0028 7.00781 19.0028 7.96875C19.0074 9.27656 18.7965 10.1484 18.1918 11.3672C17.6106 12.5437 17.1653 13.1812 14.9153 16.0734C14.1043 17.1141 13.1246 18.3891 12.7403 18.9094C12.3559 19.425 12.0231 19.8516 11.9996 19.8516C11.9809 19.8516 11.5824 19.3406 11.1184 18.7219C10.6543 18.0984 9.77307 16.95 9.15901 16.1672C6.97464 13.3781 6.32307 12.45 5.7887 11.3719C5.44651 10.6781 5.25432 10.1344 5.10432 9.42187C4.94964 8.70469 4.94964 7.31719 5.10432 6.60937C5.57307 4.41562 6.88557 2.7 8.85901 1.69219C9.56214 1.33125 10.3168 1.10156 11.1559 0.984375C11.6528 0.914062 12.8481 0.965624 13.3824 1.07812ZM10.5371 19.5094C10.9449 20.0578 11.3668 20.6391 11.4793 20.7937C11.7371 21.1687 11.9621 21.2719 12.2199 21.1266C12.2762 21.0937 12.5856 20.7094 12.8996 20.2734C13.2184 19.8328 13.6449 19.2562 13.8465 18.9891L14.2121 18.5062L14.4793 18.5391C15.0324 18.6047 16.1574 18.8531 16.7246 19.0359C17.9293 19.4297 18.8434 20.0297 18.9887 20.5219C19.359 21.7969 15.8856 23.0625 11.9996 23.0625C9.02307 23.0625 6.2012 22.3312 5.2637 21.3141C4.8512 20.8687 4.87932 20.5031 5.36214 20.0391C5.99495 19.4297 7.31682 18.9141 9.03245 18.6141C9.84807 18.4687 9.69339 18.375 10.5371 19.5094Z" fill="#F73639"/>
<path d="M11.8167 1.94063C11.3948 2.175 11.5823 2.8125 12.0745 2.8125C12.2526 2.8125 12.5151 2.53594 12.5151 2.34375C12.5151 2.23594 12.4729 2.14688 12.3558 2.03438C12.1823 1.86094 12.0136 1.83281 11.8167 1.94063Z" fill="#F73639"/>
<path d="M13.5844 2.33906C13.4578 2.45156 13.4297 2.50781 13.4297 2.6625C13.4297 2.90156 13.5656 3.05156 13.8656 3.16406C15.0328 3.59531 16.125 4.61719 16.6641 5.77969C16.9594 6.4125 17.1563 7.275 17.1563 7.90781C17.1563 8.1375 17.175 8.18437 17.3156 8.325C17.5359 8.54531 17.7188 8.54062 17.9391 8.32031L18.1078 8.15156L18.0797 7.65C17.9625 5.61094 16.875 3.80156 15.1266 2.74219C14.7 2.48437 14.0484 2.20312 13.8656 2.20312C13.7859 2.20312 13.6734 2.25937 13.5844 2.33906Z" fill="#F73639"/>
<path d="M11.3198 4.7625C10.8089 4.86094 10.1807 5.19375 9.76825 5.5875C8.68544 6.61875 8.41825 8.08594 9.0745 9.42188C9.25731 9.79219 9.36512 9.9375 9.69794 10.2703C10.0307 10.6031 10.1761 10.7109 10.5464 10.8938C11.512 11.3672 12.4729 11.3672 13.4526 10.8891C13.8229 10.7109 13.9636 10.6078 14.3011 10.2703C14.6386 9.93281 14.7417 9.79219 14.9198 9.42188C15.3979 8.44219 15.3979 7.49531 14.9198 6.51563C14.7417 6.14531 14.6386 6.00469 14.3011 5.66719C13.9682 5.33438 13.8229 5.22656 13.4526 5.04375C12.7589 4.70625 12.0745 4.6125 11.3198 4.7625ZM12.4776 5.67656C12.9089 5.76563 13.3073 5.98594 13.6448 6.32344C14.5776 7.25625 14.5776 8.68125 13.6448 9.61406C13.312 9.94219 12.9979 10.125 12.5386 10.2422C11.1136 10.6078 9.65575 9.45938 9.65575 7.96875C9.65575 6.91406 10.4245 5.93906 11.4511 5.69063C11.7604 5.61563 12.1636 5.61094 12.4776 5.67656Z" fill="#F73639"/>
</svg>
