<svg width="16" height="18" viewBox="0 0 16 18" fill="none" xmlns="http://www.w3.org/2000/svg">
<path d="M7.55661 0.00899696C7.49967 0.0160351 7.3146 0.0406647 7.14733 0.0617771C5.15073 0.325678 3.30362 1.77537 2.55623 3.67193C2.25728 4.42493 2.15051 4.99143 2.15051 5.84647C2.14695 6.70503 2.29287 7.39469 2.63097 8.15472C2.81248 8.56289 2.81248 8.5664 3.97627 10.368C4.50656 11.1878 4.92652 11.8704 4.91228 11.8845C4.89805 11.8986 4.72721 11.9338 4.53147 11.969C3.2182 12.1977 1.86935 12.6657 1.09705 13.1688C0.317631 13.672 -0.0952118 14.4004 0.0186758 15.0654C0.139681 15.7586 0.709119 16.3673 1.68428 16.8388C4.2254 18.0739 8.87343 18.3659 12.3719 17.5109C13.888 17.1414 15.0767 16.5503 15.5892 15.9169C16.2832 15.0513 16.0875 14.0415 15.0803 13.292C14.3507 12.7466 12.9022 12.2153 11.4715 11.969C11.2758 11.9338 11.1049 11.8986 11.0907 11.8845C11.0764 11.8704 11.5284 11.1421 12.0979 10.2624C12.6673 9.38274 13.2012 8.51714 13.2866 8.34473C13.5001 7.90137 13.646 7.47562 13.7564 6.95837C13.8382 6.57132 13.8525 6.43057 13.8525 5.88166C13.8525 5.53331 13.8311 5.12162 13.8062 4.9668C13.4076 2.45799 11.4715 0.505131 8.96241 0.0758514C8.66345 0.0230713 7.75947 -0.0191517 7.55661 0.00899696ZM8.95173 1.14553C10.7739 1.51499 12.2011 2.88023 12.6602 4.68531C12.9342 5.7761 12.7954 6.99356 12.2829 7.96471C12.1157 8.27787 8.03707 14.6256 8.00148 14.6256C7.99081 14.6256 7.22206 13.4433 6.29317 11.9971C5.36427 10.5545 4.42114 9.0942 4.20048 8.75289C3.97983 8.41158 3.74138 8.01397 3.6702 7.86971C2.68792 5.83592 3.2965 3.37285 5.11514 2.01464C5.81982 1.49036 6.60992 1.18071 7.53881 1.0646C7.81997 1.02941 8.59939 1.07516 8.95173 1.14553ZM6.59568 14.432C7.31816 15.5474 7.62779 16.0014 7.7132 16.0577C7.87692 16.1667 8.12605 16.1667 8.28976 16.0577C8.37518 16.0014 8.68837 15.5474 9.40728 14.432L10.4074 12.8838L10.5462 12.8944C10.6245 12.8979 10.8807 12.9366 11.1156 12.9753C12.7812 13.2533 14.0268 13.7248 14.6248 14.3089C15.0412 14.717 15.0412 14.9633 14.6283 15.3645C13.8525 16.1104 12.0765 16.6523 9.65641 16.8845C9.04782 16.9408 6.91243 16.9408 6.32876 16.8845C5.02973 16.7543 4.05457 16.5714 3.17906 16.2934C2.33202 16.026 1.7519 15.7269 1.37465 15.3645C0.98672 14.9915 0.968925 14.7417 1.30347 14.3757C1.78037 13.8514 2.90857 13.3659 4.32149 13.0809C4.90516 12.9612 5.46392 12.8697 5.54578 12.8803C5.57425 12.8803 6.0476 13.5805 6.59568 14.432Z" fill="#F2F0F5"/>
<path d="M7.66295 3.21119C7.6238 3.21823 7.5028 3.24286 7.39603 3.26397C6.62373 3.41879 5.86922 4.05215 5.53824 4.82626C5.39232 5.16757 5.34961 5.39628 5.34961 5.82908C5.34961 6.26188 5.39232 6.49059 5.53824 6.8319C5.86922 7.60249 6.57034 8.19363 7.39603 8.40123C7.64871 8.46456 8.35339 8.46456 8.60608 8.40123C9.43177 8.19363 10.1329 7.60249 10.4639 6.8319C10.6098 6.49059 10.6525 6.26188 10.6525 5.82908C10.6525 5.60037 10.6311 5.33999 10.6027 5.23091C10.3607 4.28438 9.61683 3.53491 8.65947 3.27101C8.47796 3.22175 7.79463 3.17952 7.66295 3.21119ZM8.28933 4.28087C9.12569 4.43921 9.70937 5.2485 9.57413 6.06131C9.46024 6.75097 8.93351 7.27174 8.23595 7.38433C7.2074 7.55323 6.25715 6.61374 6.42798 5.59685C6.57746 4.71014 7.41382 4.11901 8.28933 4.28087Z" fill="#F2F0F5"/>
</svg>
