<svg width="56" height="56" viewBox="0 0 56 56" fill="none" xmlns="http://www.w3.org/2000/svg">
<g clip-path="url(#clip0_725_101)">
<path d="M49.4915 20.4993L55.0929 15.0758C55.3369 14.8396 55.47 14.5281 55.47 14.1951C55.47 13.8622 55.3369 13.5508 55.0929 13.3145L41.7162 0.362463C41.2171 -0.120821 40.3963 -0.120821 39.8972 0.362463L37.2685 2.90782C34.2625 1.46871 30.5246 1.96273 28.0289 4.37915L22.1725 10.0497C21.3407 9.97449 20.4977 9.95307 19.6657 10.0068L15.5729 6.04379C15.3289 5.80751 15.0072 5.6786 14.6634 5.6786C14.3195 5.6786 13.9979 5.80751 13.7539 6.04379L0.37715 18.9958C0.133131 19.2321 0 19.5436 0 19.8764C0 20.2094 0.133131 20.5209 0.37715 20.7572L2.39586 22.7116L1.59722 30.4765C0.85407 32.2056 1.20902 34.2676 2.65095 35.6638C3.60485 36.5874 4.85822 37.0492 6.12268 37.0492C6.20033 37.0492 6.26689 37.0492 6.34453 37.0492C6.34453 37.1244 6.34453 37.1888 6.34453 37.264C6.34453 38.5313 6.85474 39.7234 7.78645 40.6255C8.71816 41.5276 9.94936 42.0216 11.2582 42.0216C11.3359 42.0216 11.4024 42.0216 11.48 42.0216C11.4246 43.3104 11.9015 44.6099 12.9108 45.5872C13.8426 46.4893 15.0737 46.9834 16.3826 46.9834C16.4602 46.9834 16.5268 46.9834 16.6045 46.9834C16.549 48.2721 17.0259 49.5716 18.0352 50.5489C18.9891 51.4725 20.2425 51.9343 21.5069 51.9343C22.4165 51.9343 23.326 51.6873 24.1246 51.204C24.1468 51.2255 24.1579 51.247 24.1802 51.2684L26.9752 53.9748C27.9513 54.92 29.238 55.3925 30.5246 55.3925C31.8112 55.3925 33.0979 54.92 34.074 53.9748C35.0168 53.062 35.5492 51.8377 35.5492 50.5382C35.5492 50.4523 35.5492 50.3664 35.5381 50.2804C35.6268 50.2804 35.7155 50.2912 35.8043 50.2912C37.1464 50.2912 38.3997 49.7864 39.3537 48.8735C40.2965 47.9607 40.8178 46.7364 40.8178 45.4369C40.8178 45.3509 40.8178 45.265 40.8066 45.1791C40.8954 45.1791 40.9842 45.1899 41.0729 45.1899C42.3595 45.1899 43.6462 44.7173 44.6223 43.7722C45.5651 42.8594 46.0975 41.635 46.0975 40.3355C46.0975 40.2496 46.0975 40.1636 46.0863 40.0778C46.1751 40.0778 46.2639 40.0885 46.3526 40.0885C47.6946 40.0885 48.948 39.5837 49.902 38.6708C50.8448 37.758 51.366 36.5337 51.366 35.2341C51.366 33.9347 50.8448 32.7211 49.902 31.7974L46.9072 28.8978C48.6375 26.3632 49.4915 23.4528 49.4915 20.5531C49.4693 20.5209 49.4804 20.51 49.4915 20.4993ZM40.7956 3.01519L52.3532 14.2059L49.1144 17.3419C48.5044 14.5173 47.0736 11.8432 44.8442 9.68453L39.3758 4.38983L40.7956 3.01519ZM4.47002 33.9025C3.56049 33.0218 3.56049 31.5827 4.47002 30.702L6.41108 28.8226C6.85475 28.393 7.4426 28.1567 8.06374 28.1567C8.68488 28.1567 9.27277 28.393 9.71637 28.8226C10.1601 29.2522 10.4041 29.8214 10.4041 30.4228C10.4041 31.0243 10.1601 31.5934 9.71637 32.023L7.77534 33.9025C6.86582 34.7831 5.37954 34.7831 4.47002 33.9025ZM11.236 39.53C10.6148 39.53 10.0269 39.2938 9.58334 38.8642C9.13964 38.4346 8.89563 37.8654 8.89563 37.264C8.89563 36.6626 9.13964 36.0933 9.58334 35.6638L13.288 32.0767C13.7317 31.6471 14.3195 31.4108 14.9406 31.4108C15.5618 31.4108 16.1497 31.6471 16.5933 32.0767C17.5028 32.9573 17.5028 34.3964 16.5933 35.2771L15.7503 36.0933L12.8886 38.8642C12.4449 39.2938 11.8682 39.53 11.236 39.53ZM16.3604 44.481C15.7392 44.481 15.1514 44.2447 14.7077 43.8151C13.7982 42.9345 13.7982 41.4954 14.7077 40.6148L18.4124 37.0276L19.9652 35.5242C20.4089 35.0946 20.9968 34.8583 21.6179 34.8583C22.2391 34.8583 22.8269 35.0946 23.2706 35.5242C23.7143 35.9538 23.9583 36.5229 23.9583 37.1244C23.9583 37.7258 23.7143 38.2949 23.2706 38.7245L21.7177 40.2282L18.0131 43.8151C17.5694 44.2447 16.9815 44.481 16.3604 44.481ZM19.8321 48.7769C18.9226 47.8962 18.9226 46.4572 19.8321 45.5764L23.5368 41.9894C24.4463 41.1087 25.9326 41.1087 26.8421 41.9894C27.7517 42.87 27.7517 44.3092 26.8421 45.1899L23.1375 48.7769C22.2169 49.6575 20.7417 49.6575 19.8321 48.7769ZM48.7595 35.202C48.7595 35.8356 48.5044 36.4262 48.0384 36.8773C47.5726 37.3284 46.9626 37.5754 46.3081 37.5754C45.6538 37.5754 45.0437 37.3284 44.5778 36.8773L43.8458 36.1685C43.3467 35.6852 42.5258 35.6852 42.0268 36.1685C41.5277 36.6518 41.5277 37.4466 42.0268 37.9299L42.7588 38.6386C43.2247 39.0897 43.4798 39.6804 43.4798 40.314C43.4798 40.9476 43.2247 41.5383 42.7588 41.9894C41.805 42.913 40.2522 42.913 39.2982 41.9894L38.5661 41.2806C38.067 40.7973 37.2462 40.7973 36.7471 41.2806C36.248 41.7639 36.248 42.5587 36.7471 43.042L37.4791 43.7507C37.945 44.2018 38.2001 44.7924 38.2001 45.4261C38.2001 46.0597 37.945 46.6504 37.4791 47.1015C36.5253 48.0251 34.9725 48.0251 34.0185 47.1015L33.2864 46.3927C32.7873 45.9094 31.9665 45.9094 31.4674 46.3927C30.9683 46.876 30.9683 47.6707 31.4674 48.1539L32.1995 48.8628C32.6654 49.3139 32.9205 49.9045 32.9205 50.5382C32.9205 51.1718 32.6654 51.7625 32.1995 52.2136C31.2456 53.1372 29.6928 53.1372 28.7388 52.2136L25.977 49.5394L28.6389 46.9619C30.5468 45.1147 30.5468 42.0968 28.6389 40.2496C27.9291 39.5622 27.064 39.1326 26.1434 38.9608C26.3874 38.3916 26.5094 37.7795 26.5094 37.1458C26.5094 35.8785 25.9991 34.6865 25.0674 33.7844C24.1357 32.8822 22.9045 32.3881 21.5957 32.3881C20.9413 32.3881 20.3091 32.5063 19.7212 32.7426C19.5326 31.8619 19.0889 31.0135 18.3791 30.3261C17.4474 29.424 16.2162 28.93 14.9074 28.93C14.1753 28.93 13.4544 29.0911 12.8111 29.3811C12.6114 28.5111 12.1567 27.7164 11.4911 27.0721C10.5594 26.17 9.32822 25.6758 8.0194 25.6758C6.71057 25.6758 5.47938 26.17 4.54767 27.0721L4.47002 27.1472L4.95806 22.3788C4.99133 22.0028 4.85821 21.6378 4.59201 21.38L3.05024 19.8872L14.6079 8.69644L18.2128 12.1868C18.4679 12.4339 18.8006 12.5628 19.1666 12.552C19.1999 12.552 19.2332 12.552 19.2664 12.5412C20.1649 12.4554 21.0745 12.4554 21.9617 12.552L21.1631 20.4779C21.03 21.8204 21.4404 23.1306 22.3278 24.1724C23.2151 25.214 24.4574 25.8585 25.8439 25.9874C26.0103 25.998 26.1766 26.0088 26.3541 26.0088C28.994 26.0088 31.2677 24.0541 31.534 21.4552L31.8889 17.9434L47.9941 33.5372C48.5044 33.9776 48.7595 34.5683 48.7595 35.202ZM45.0104 27.0613L32.5211 14.9684C32.4435 14.8932 32.3548 14.8288 32.2549 14.7751L32.499 12.3265C32.5655 11.6391 32.0552 11.0378 31.3454 10.9626C30.6355 10.8981 30.0144 11.3921 29.9368 12.0795L29.0272 21.1974C28.8831 22.5936 27.5963 23.6246 26.1544 23.4957C25.4557 23.4313 24.8234 23.0984 24.3797 22.5722C23.9361 22.0459 23.7254 21.38 23.7919 20.7034L24.768 11.0592L29.8591 6.12972C31.9888 4.06771 35.4493 4.06771 37.5789 6.12972L43.0472 11.4244C47.3508 15.6236 48.094 22.1103 45.0104 27.0613Z" fill="#F73639"/>
</g>
<defs>
<clipPath id="clip0_725_101">
<rect width="56" height="56" fill="white"/>
</clipPath>
</defs>
</svg>
