<svg width="24" height="24" viewBox="0 0 24 24" fill="none" xmlns="http://www.w3.org/2000/svg">
<g clip-path="url(#clip0_725_415)">
<path d="M20.4905 3.52005C15.8071 -1.16911 8.20916 -1.17377 3.51994 3.50957C-1.16921 8.19303 -1.17393 15.791 3.50952 20.4802C8.19287 25.1694 15.7909 25.174 20.4801 20.4906C25.1692 15.8073 25.1739 8.20921 20.4905 3.52005ZM13.6755 19.6147C13.6755 19.7998 13.5255 19.9498 13.3404 19.9498H10.6596C10.4746 19.9498 10.3245 19.7998 10.3245 19.6147V9.66304C10.3245 9.47787 10.4746 9.32794 10.6596 9.32794H13.3404C13.5255 9.32794 13.6755 9.47782 13.6755 9.66304V19.6147ZM12 7.93725C10.9284 7.93725 10.0566 7.06549 10.0566 5.99384C10.0566 4.92231 10.9284 4.05038 12 4.05038C13.0717 4.05038 13.9435 4.92225 13.9435 5.99384C13.9435 7.06549 13.0716 7.93725 12 7.93725Z" fill="#F73639"/>
</g>
<defs>
<clipPath id="clip0_725_415">
<rect width="24" height="24" fill="white"/>
</clipPath>
</defs>
</svg>
