<svg width="56" height="56" viewBox="0 0 56 56" fill="none" xmlns="http://www.w3.org/2000/svg">
<g clip-path="url(#clip0_725_88)">
<path d="M43.9284 35.0467C42.8044 33.8803 41.4472 33.2443 40.0051 33.2443C38.5842 33.2443 37.2057 33.859 36.0181 35.0254L32.328 38.6943C32.031 38.5247 31.7128 38.3763 31.4371 38.2278C31.013 38.0157 30.6313 37.8248 30.2919 37.6127C26.8564 35.4283 23.7176 32.5656 20.7273 28.8755C19.264 27.0305 18.2885 25.4821 17.5887 23.9127C18.543 23.0433 19.4337 22.1313 20.2821 21.2617C20.6002 20.9437 20.9394 20.6044 21.2575 20.2651C23.6964 17.8262 23.6964 14.6662 21.2575 12.2061L18.0764 9.02497C17.7159 8.66445 17.3341 8.28267 16.9948 7.92213C16.295 7.20108 15.5739 6.45877 14.8105 5.75892C13.6865 4.63492 12.3292 4.0415 10.9082 4.0415C9.48732 4.0415 8.10884 4.6349 6.94243 5.73769L6.9212 5.75892L2.95539 9.74621C1.47086 11.2307 0.62256 13.0547 0.431692 15.1543C0.155994 18.5475 1.15277 21.7282 1.91625 23.7853C3.80372 28.8752 6.60312 33.5833 10.8022 38.6519C15.892 44.7385 22.021 49.5525 29.0196 52.9457C31.6917 54.2182 35.2757 55.7244 39.2627 55.9788C39.5172 56 39.7718 56.0001 40.0051 56.0001C42.6985 56.0001 44.9464 55.0454 46.7278 53.1156C46.749 53.0944 46.7703 53.0731 46.7703 53.0519C47.3853 52.3096 48.0851 51.6522 48.8061 50.9523C49.3151 50.4858 49.8241 49.9769 50.3119 49.4468C51.4571 48.259 52.0722 46.8596 52.0722 45.4175C52.0722 43.9754 51.4571 42.5966 50.2906 41.4302L43.9284 35.0467ZM48.0852 47.3047C48.0639 47.3047 48.0639 47.326 48.0852 47.3047C47.6398 47.7925 47.1733 48.2377 46.6643 48.7255C45.9008 49.4466 45.1372 50.2102 44.4161 51.0585C43.2497 52.3098 41.85 52.9033 40.0474 52.9033C39.8777 52.9033 39.6869 52.9038 39.5172 52.8826C36.0603 52.6493 32.8581 51.3132 30.4405 50.1468C23.8661 46.9444 18.0764 42.427 13.2835 36.6797C9.31765 31.8868 6.66671 27.4755 4.92768 22.725C3.8461 19.8195 3.46439 17.5717 3.63405 15.4297C3.76129 14.0724 4.2703 12.9487 5.24584 11.9731L9.21165 8.00705C9.78426 7.47686 10.3781 7.18018 10.9719 7.18018C11.7142 7.18018 12.308 7.62531 12.6685 8.00705L12.711 8.04951C13.4108 8.70694 14.0894 9.40675 14.8105 10.1278C15.171 10.5095 15.5527 10.8701 15.9133 11.2519L19.0945 14.433C20.3244 15.6631 20.3244 16.8081 19.0945 18.0382C18.7551 18.3775 18.4369 18.7168 18.0976 19.0349C17.1221 20.0317 16.1889 20.965 15.171 21.8768C15.1497 21.8981 15.1287 21.9194 15.1074 21.9406C14.1107 22.9373 14.3015 23.9129 14.4923 24.5915L14.5348 24.6976C15.3618 26.6912 16.5284 28.5784 18.2886 30.8264L18.3097 30.8476C21.5119 34.8134 24.9053 37.8885 28.6379 40.2637C29.1044 40.5606 29.6133 40.8153 30.0588 41.0486C30.4828 41.2607 30.8646 41.4516 31.2039 41.6637C31.2463 41.685 31.2887 41.7274 31.3524 41.7486C31.7553 41.9395 32.1158 42.0453 32.4975 42.0453C33.473 42.0453 34.0669 41.4512 34.2578 41.2391L38.2448 37.2736C38.6477 36.8707 39.2628 36.4043 40.0051 36.4043C40.7262 36.4043 41.3199 36.8494 41.6804 37.2524L48.1063 43.6995C49.2728 44.8448 49.2728 46.0746 48.0852 47.3047Z" fill="#F73639"/>
<path d="M30.1647 13.9869C33.2186 14.4959 35.9756 15.9379 38.1812 18.1647C40.3868 20.3703 41.8289 23.1486 42.3379 26.2024C42.465 26.966 43.1225 27.4958 43.8859 27.517C43.9708 27.517 44.0556 27.4958 44.1616 27.4958C45.0312 27.3474 45.6039 26.5418 45.4554 25.6722C44.8403 21.9822 43.0802 18.6099 40.4293 15.959C37.7571 13.2869 34.4062 11.5481 30.7161 10.9119C29.8466 10.7634 29.062 11.3357 28.8923 12.184C28.7438 13.0323 29.2952 13.8596 30.1647 13.9869Z" fill="#F73639"/>
<path d="M55.4224 25.2273C54.3832 19.162 51.5415 13.6268 47.1516 9.21554C42.7616 4.80437 37.2264 1.94152 31.161 0.902349C30.3127 0.753897 29.5068 1.32619 29.3584 2.17449C29.2099 3.04401 29.7825 3.82891 30.652 3.99857C36.0811 4.93171 41.0225 7.49782 44.9459 11.4212C48.8693 15.3658 51.4355 20.3072 52.3475 25.7363C52.4747 26.4998 53.1321 27.0297 53.8955 27.0509C53.9803 27.0509 54.0653 27.0297 54.1713 27.0297C54.9983 26.8813 55.5709 26.0757 55.4224 25.2273Z" fill="#F73639"/>
</g>
<defs>
<clipPath id="clip0_725_88">
<rect width="56" height="56" fill="white"/>
</clipPath>
</defs>
</svg>
