<svg width="24" height="24" viewBox="0 0 24 24" fill="none" xmlns="http://www.w3.org/2000/svg">
<path d="M11.2081 2.53593C10.1159 2.62031 8.85029 2.97187 7.80498 3.4875C4.77217 4.98281 2.78467 7.93593 2.53154 11.3297C2.21279 15.6187 4.88935 19.6312 8.99092 21C13.505 22.5094 18.4175 20.4609 20.5081 16.1953C21.2722 14.6344 21.5956 12.9937 21.469 11.3203C21.1128 6.59999 17.4097 2.89218 12.7034 2.53124C12.0097 2.47968 11.9253 2.47968 11.2081 2.53593ZM13.6128 3.65624C17.0347 4.34062 19.6597 6.97031 20.3534 10.4062C20.4472 10.875 20.4612 11.0859 20.4612 12C20.4612 12.9281 20.4472 13.1203 20.3487 13.5937C19.9503 15.5437 18.9425 17.2641 17.4894 18.4828C16.3784 19.4156 15.0284 20.0625 13.594 20.3531C13.1253 20.4469 12.9144 20.4609 12.0003 20.4609C11.0722 20.4609 10.88 20.4469 10.4065 20.3484C8.45654 19.95 6.73623 18.9422 5.51748 17.4891C4.58467 16.3781 3.93779 15.0328 3.64717 13.5937C3.55342 13.125 3.53935 12.9187 3.53935 12C3.53935 11.0812 3.55342 10.875 3.64717 10.4062C4.3831 6.77343 7.25185 4.06874 10.9128 3.56718C11.0862 3.53906 11.6487 3.52968 12.1644 3.53437C12.8956 3.54843 13.2144 3.57187 13.6128 3.65624Z" fill="#F73639"/>
<path d="M11.3678 5.53125C9.80688 5.70938 8.48969 6.3375 7.41157 7.41094C6.27719 8.55 5.63969 9.95625 5.50844 11.6344C5.47094 12.1266 5.54126 12.3234 5.79438 12.4453C5.99594 12.5391 6.18344 12.5063 6.34751 12.3422C6.47876 12.2109 6.50219 12.1219 6.53501 11.5078C6.54907 11.2734 6.61469 10.8703 6.68032 10.6172C6.82563 10.0547 7.25219 9.15469 7.58969 8.71875C7.88969 8.325 8.52251 7.71563 8.90219 7.45781C9.33813 7.15781 10.0834 6.82031 10.6178 6.675C11.0491 6.55313 11.1569 6.54375 11.9772 6.54375C12.9569 6.53906 13.3084 6.6 14.035 6.89531C14.4756 7.07344 14.6819 7.07344 14.8647 6.89531C15.0381 6.72188 15.0569 6.40781 14.9022 6.23906C14.71 6.03281 13.8616 5.72813 13.1444 5.60625C12.6147 5.51719 11.7897 5.47969 11.3678 5.53125Z" fill="#F73639"/>
<path d="M16.7582 6.56719C16.7066 6.59532 15.8394 7.43907 14.8363 8.44688L13.0035 10.2703L12.7879 10.1719C11.8269 9.75 10.6551 10.1859 10.2144 11.1281C9.63787 12.3656 10.3691 13.7531 11.7144 13.9734C13.2238 14.2125 14.4472 12.6188 13.8285 11.2172L13.7301 10.9969L15.6097 9.11719L17.4847 7.2375V7.0125C17.4847 6.82969 17.4613 6.76407 17.3488 6.65157C17.1988 6.50625 16.9457 6.46875 16.7582 6.56719ZM12.5347 11.1563C12.6285 11.2219 12.7644 11.3578 12.8347 11.4563C12.9472 11.6203 12.9613 11.6859 12.9613 12C12.9613 12.3141 12.9472 12.3797 12.8347 12.5438C12.7644 12.6422 12.6285 12.7781 12.5301 12.8438C12.3847 12.9422 12.3051 12.9609 12.0004 12.9609C11.6957 12.9609 11.616 12.9422 11.4707 12.8438C11.3722 12.7781 11.2363 12.6422 11.166 12.5438C11.0535 12.3797 11.0394 12.3141 11.0394 11.9953C11.0394 11.6672 11.0535 11.6156 11.1801 11.4328C11.391 11.1328 11.6676 11.0063 12.0519 11.025C12.2863 11.0391 12.4035 11.0719 12.5347 11.1563Z" fill="#F73639"/>
<path d="M17.2078 9.06563C16.9406 9.21563 16.9078 9.4875 17.1047 9.96563C17.3016 10.4484 17.4375 11.025 17.4656 11.5078C17.4985 12.1219 17.5219 12.2109 17.6531 12.3422C17.9016 12.5906 18.2953 12.525 18.4453 12.2063C18.6797 11.7141 18.1594 9.43125 17.7375 9.09844C17.5969 8.98594 17.3766 8.97188 17.2078 9.06563Z" fill="#F73639"/>
</svg>
