<svg width="16" height="16" viewBox="0 0 16 16" fill="none" xmlns="http://www.w3.org/2000/svg">
<path d="M16 8C16 9.58225 15.5308 11.129 14.6518 12.4446C13.7727 13.7602 12.5233 14.7855 11.0615 15.391C9.59966 15.9965 7.99113 16.155 6.43928 15.8463C4.88743 15.5376 3.46197 14.7757 2.34315 13.6569C1.22433 12.538 0.462403 11.1126 0.153721 9.56072C-0.15496 8.00887 0.00346625 6.40034 0.608967 4.93853C1.21447 3.47672 2.23985 2.22729 3.55544 1.34824C4.87103 0.469192 6.41775 0 8 0C10.1217 0 12.1566 0.842855 13.6569 2.34315C15.1571 3.84344 16 5.87827 16 8ZM9.521 6.888L13.117 4.811L12.99 4.591C12.7756 4.25462 12.4582 3.99655 12.0852 3.85526C11.7122 3.71398 11.3034 3.69705 10.92 3.807C9.34043 4.04045 7.82186 4.58095 6.45 5.398C5.06491 6.17401 3.84392 7.21194 2.855 8.454C2.55905 8.73055 2.36164 9.09628 2.29286 9.49546C2.22407 9.89463 2.28768 10.3053 2.474 10.665L2.601 10.885L6.197 8.809L6.07 8.588C5.93157 8.34898 5.73432 8.14932 5.497 8.008C6.59352 7.09319 7.83894 6.3734 9.179 5.88C9.18218 6.1564 9.2562 6.42737 9.394 6.667L9.521 6.888ZM6.772 9.804L6.597 9.501L3.002 11.578L3.177 11.882C3.23844 11.9874 3.33905 12.0641 3.45688 12.0956C3.57472 12.1271 3.70021 12.1107 3.806 12.05L6.604 10.434C6.70963 10.3726 6.78661 10.2718 6.8181 10.1537C6.84958 10.0356 6.83301 9.90988 6.772 9.804ZM13.692 5.807L13.517 5.504L9.922 7.581L10.097 7.884C10.1584 7.98963 10.2592 8.06661 10.3773 8.09809C10.4954 8.12958 10.6211 8.11301 10.727 8.052L13.524 6.436C13.6296 6.37455 13.7066 6.27376 13.7381 6.15569C13.7696 6.03762 13.753 5.91288 13.692 5.807Z" fill="#F2F0F5"/>
</svg>
