<svg width="24" height="24" viewBox="0 0 24 24" fill="none" xmlns="http://www.w3.org/2000/svg">
<path d="M6.1028 4.12969C5.63405 4.20937 5.19343 4.51875 4.94499 4.94531C4.88405 5.04844 4.51843 6.00937 4.12936 7.07812C3.74499 8.14687 3.40749 9.075 3.38405 9.14062C3.34655 9.24844 3.33718 9.23438 3.26218 8.99062C3.13093 8.52656 3.14499 8.53125 1.72468 8.53125C0.421551 8.53125 0.309051 8.55 0.201239 8.775C-0.0331362 9.25781 -0.0471987 9.90937 0.168426 10.4578C0.294989 10.7672 0.365301 10.7812 1.63561 10.7812C2.25905 10.7812 2.7653 10.8 2.7653 10.8187C2.7653 10.8422 2.71374 10.8844 2.6528 10.9125C2.43718 11.0109 2.16061 11.3016 2.07624 11.5219C1.99655 11.7281 1.99186 11.9906 1.99186 15.6328C1.99186 19.2656 1.99655 19.5328 2.07624 19.6453C2.2403 19.8937 2.28718 19.8984 3.8903 19.8984C5.49343 19.8984 5.5403 19.8937 5.70436 19.6453C5.77936 19.5375 5.78874 19.3687 5.8028 18.1312L5.81686 16.7344H11.9997H18.1825L18.1966 18.1266C18.2106 19.3687 18.22 19.5375 18.295 19.6453C18.4591 19.8937 18.5059 19.8984 20.1091 19.8984C21.7122 19.8984 21.7591 19.8937 21.9231 19.6453C22.0028 19.5328 22.0075 19.2656 22.0075 15.6328C22.0075 11.9906 22.0028 11.7281 21.9231 11.5219C21.8387 11.3016 21.5622 11.0109 21.3466 10.9125C21.2856 10.8844 21.2341 10.8422 21.2341 10.8187C21.2341 10.8 21.7403 10.7812 22.3637 10.7812C23.6341 10.7812 23.7044 10.7672 23.8309 10.4578C24.0466 9.90937 24.0325 9.25781 23.7981 8.775C23.6903 8.55 23.5778 8.53125 22.2747 8.53125C20.8544 8.53125 20.8684 8.52656 20.7372 8.99062L20.6575 9.25781L20.6012 9.09375C19.87 7.05 19.1434 5.09062 19.0544 4.94531C18.8012 4.51406 18.3841 4.22344 17.8825 4.12969C17.545 4.06875 6.48249 4.06875 6.1028 4.12969ZM18.22 8.36719C18.6653 9.60469 19.045 10.6641 19.0591 10.7203L19.0872 10.8281H12.0044C7.6028 10.8281 4.92155 10.8094 4.92155 10.7859C4.92155 10.7484 6.35124 6.75937 6.55749 6.22031L6.60905 6.09375L12.0044 6.10312L17.4044 6.11719L18.22 8.36719ZM7.36843 12.5109C7.65437 12.7078 7.75749 12.9094 7.75749 13.2703C7.75749 13.5516 7.74343 13.6031 7.61218 13.7672C7.31686 14.1328 7.31686 14.1328 5.81218 14.1328C5.07624 14.1328 4.41999 14.1187 4.34968 14.0953C4.14811 14.0391 3.90436 13.8 3.8153 13.5703C3.65124 13.1344 3.82936 12.7031 4.26999 12.4781C4.47155 12.375 4.49968 12.3703 5.8403 12.3844C7.1903 12.3984 7.20436 12.3984 7.36843 12.5109ZM19.7341 12.4781C20.17 12.7031 20.3481 13.1344 20.1841 13.5703C20.095 13.8 19.8512 14.0391 19.6497 14.0953C19.5794 14.1187 18.9231 14.1328 18.1872 14.1328C16.6825 14.1328 16.6825 14.1328 16.3872 13.7672C16.2559 13.6031 16.2419 13.5516 16.2419 13.2703C16.2419 13.0125 16.2606 12.9234 16.3591 12.7875C16.4716 12.6234 16.6637 12.4734 16.8512 12.4125C16.9028 12.3984 17.5262 12.3844 18.2341 12.3797C19.4856 12.375 19.5325 12.3797 19.7341 12.4781Z" fill="#F73639"/>
</svg>
