<svg width="18" height="14" viewBox="0 0 18 14" fill="none" xmlns="http://www.w3.org/2000/svg">
<path d="M1.21641 0.719531C0.921094 0.793359 0.699609 0.919921 0.474609 1.14492C0.246094 1.37344 0.105469 1.62305 0.0421875 1.92891C-0.0140625 2.19609 -0.0140625 11.8078 0.0421875 12.068C0.172266 12.6691 0.664453 13.1613 1.26211 13.2879C1.52578 13.3441 16.4812 13.3441 16.7449 13.2879C17.3426 13.1613 17.8383 12.6621 17.9648 12.068C18.0211 11.8008 18.0211 2.18906 17.9648 1.92891C17.8348 1.32422 17.3461 0.835546 16.7449 0.708983C16.4602 0.649219 1.45547 0.659765 1.21641 0.719531ZM12.7828 5.13867C10.9055 7.0125 9.33047 8.57344 9.27773 8.60156C9.15469 8.66484 8.85234 8.66484 8.7293 8.60156C8.67656 8.57344 7.10156 7.0125 5.22422 5.13867L1.81406 1.725H9.00352H16.193L12.7828 5.13867ZM3.33281 9.27305L1.0582 11.5512V6.99844V2.4457L3.33281 4.72383L5.61094 6.99844L3.33281 9.27305ZM16.9488 7.00547V11.5512L14.6742 9.27656L12.3961 6.99844L14.6637 4.73086C15.9117 3.48281 16.9348 2.46328 16.9383 2.46328C16.9453 2.46328 16.9488 4.50937 16.9488 7.00547ZM7.17188 8.59102C7.92773 9.33984 8.02617 9.42422 8.2793 9.55078L8.56055 9.68789H9C9.43945 9.68789 9.44648 9.68789 9.7207 9.5543C9.97734 9.43125 10.0582 9.36094 10.8387 8.59102L11.6789 7.75781L13.9359 10.0148L16.193 12.2719H9.00352H1.81406L4.06406 10.0219C5.30156 8.78437 6.32109 7.77187 6.32812 7.77187C6.33867 7.77187 6.71836 8.14102 7.17188 8.59102Z" fill="#F2F0F5"/>
</svg>
