<?xml version="1.0" standalone="no"?>
<!DOCTYPE svg PUBLIC "-//W3C//DTD SVG 20010904//EN"
 "http://www.w3.org/TR/2001/REC-SVG-20010904/DTD/svg10.dtd">
<svg version="1.0" xmlns="http://www.w3.org/2000/svg"
 width="512.000000pt" height="512.000000pt" viewBox="0 0 512.000000 512.000000"
 preserveAspectRatio="xMidYMid meet">

<g transform="translate(0.000000,512.000000) scale(0.100000,-0.100000)"
fill="#000000" stroke="none">
<path d="M2495 5105 c-16 -8 -583 -367 -1260 -798 l-1230 -783 0 -137 0 -136
1270 -837 c699 -461 1277 -838 1285 -838 8 0 587 377 1285 838 l1270 837 0
136 0 137 -1230 783 c-676 431 -1245 790 -1264 798 -41 18 -86 18 -126 0z"/>
<path d="M0 1761 c0 -611 3 -1111 6 -1111 8 0 1685 1059 1702 1075 10 9 -159
125 -835 570 -466 307 -854 563 -860 568 -10 8 -13 -214 -13 -1102z"/>
<path d="M4257 2302 c-685 -451 -856 -568 -845 -577 25 -23 1699 -1077 1704
-1073 2 3 3 502 2 1110 l-3 1106 -858 -566z"/>
<path d="M1015 906 c-963 -610 -1000 -635 -997 -661 8 -75 86 -171 170 -212
l57 -28 2315 0 2315 0 57 28 c84 41 161 137 170 212 3 26 -34 51 -999 661
l-1002 634 -221 -145 c-262 -172 -267 -175 -320 -175 -52 0 -57 2 -319 175
-122 80 -222 145 -224 145 -1 0 -452 -286 -1002 -634z"/>
</g>
</svg>
