<svg width="18" height="18" viewBox="0 0 18 18" fill="none" xmlns="http://www.w3.org/2000/svg">
<path d="M1.44844 0.0679722C1.10742 0.159391 0.840234 0.314098 0.576562 0.574289C0.312891 0.841511 0.158203 1.10522 0.0703125 1.46034C0 1.72756 0 1.86469 0 8.99883C0 16.133 0 16.2701 0.0703125 16.5373C0.158203 16.8924 0.312891 17.1561 0.576562 17.4234C0.84375 17.6871 1.10742 17.8418 1.4625 17.9297C1.72969 18 1.8668 18 9 18C16.1332 18 16.2703 18 16.5375 17.9297C16.8926 17.8418 17.1562 17.6871 17.4234 17.4234C17.6871 17.1561 17.8418 16.8924 17.9297 16.5373C18 16.2701 18 16.133 18 8.99883C18 1.86469 18 1.72756 17.9297 1.46034C17.8383 1.09818 17.6871 0.837996 17.4059 0.560225C17.1281 0.289486 16.9066 0.159391 16.5375 0.0679722C16.2703 -0.00234985 16.1262 -0.00234985 8.98594 0.0011673C1.91953 0.0011673 1.69805 0.00468254 1.44844 0.0679722ZM11.9109 3.24651C13.4156 3.49264 14.3578 4.38221 14.6426 5.83435C14.741 6.33715 14.7762 7.45878 14.7551 9.54382C14.7445 10.7147 14.7199 11.664 14.6953 11.8293C14.5758 12.6802 14.3121 13.2779 13.8375 13.7737C13.275 14.3644 12.5719 14.6703 11.5805 14.7652C11.0355 14.8144 6.88359 14.8144 6.31055 14.7652C5.30508 14.6773 4.65117 14.3995 4.07812 13.8159C3.62109 13.3553 3.38203 12.8841 3.23438 12.1668C3.04453 11.228 3.04453 6.73447 3.23438 5.79567C3.51562 4.42088 4.38047 3.56296 5.77617 3.28167C6.25078 3.18322 6.78867 3.16916 9.21094 3.17971C11.2008 3.18674 11.6016 3.19729 11.9109 3.24651Z" fill="#F2F0F5"/>
<path d="M6.43353 4.25579C5.68119 4.31205 5.18549 4.51598 4.79877 4.92385C4.5597 5.177 4.46478 5.33523 4.35228 5.65871C4.20463 6.09119 4.18002 6.42521 4.15892 8.40125C4.13783 10.4195 4.1765 11.5868 4.27142 12.0263C4.41556 12.6698 4.79525 13.1902 5.31205 13.4433C5.9097 13.7352 6.18744 13.7562 8.92963 13.7598C11.2886 13.7598 11.7035 13.7387 12.157 13.598C12.5472 13.4785 12.7968 13.3343 13.0464 13.0776C13.4507 12.6698 13.6195 12.1951 13.6757 11.3196C13.7214 10.6445 13.7214 7.37104 13.6757 6.67486C13.616 5.76419 13.4472 5.30007 13.0218 4.87462C12.6351 4.48785 12.1605 4.31205 11.3554 4.25227C10.7999 4.2136 6.97494 4.2136 6.43353 4.25579ZM12.2167 5.20513C12.7195 5.34226 12.9058 5.96812 12.5578 6.34083C12.1218 6.80495 11.3554 6.5096 11.3554 5.87671C11.3554 5.57081 11.5312 5.32468 11.8335 5.2192C12.0023 5.15942 12.041 5.15591 12.2167 5.20513ZM9.62572 6.08064C10.6382 6.32325 11.4503 7.07569 11.7843 8.08481C11.8898 8.40125 11.8968 8.45048 11.8968 8.96383C11.9003 9.58617 11.8617 9.77253 11.6331 10.2648C11.3097 10.9539 10.7226 11.506 10.023 11.7732C9.62572 11.9244 9.37963 11.9666 8.91205 11.9666C8.28627 11.9666 7.78705 11.8154 7.27377 11.4743C6.97142 11.2739 6.55306 10.8309 6.36322 10.5144C5.34369 8.79857 6.28236 6.55883 8.21947 6.08064C8.60267 5.98922 9.23549 5.98922 9.62572 6.08064Z" fill="#F2F0F5"/>
<path d="M8.70126 7.06507C7.79072 7.16352 7.07353 7.91948 7.00673 8.84421C6.96454 9.43491 7.15439 9.94123 7.57275 10.3561C8.20204 10.975 9.06689 11.1015 9.87197 10.6902C9.95283 10.648 10.1286 10.5108 10.2622 10.3878C10.6595 10.0115 10.8634 9.53688 10.8634 8.98837C10.8634 7.82103 9.86845 6.93849 8.70126 7.06507Z" fill="#F2F0F5"/>
</svg>
