<svg width="25" height="25" viewBox="0 0 25 25" fill="none" xmlns="http://www.w3.org/2000/svg">
<path d="M2.34375 7.03125C2.34375 15.6604 9.33958 22.6562 17.9687 22.6562H20.3125C20.9341 22.6562 21.5302 22.4093 21.9698 21.9698C22.4093 21.5302 22.6562 20.9341 22.6562 20.3125V18.8833C22.6562 18.3458 22.2906 17.8771 21.7688 17.7469L17.1615 16.5948C16.7031 16.4802 16.2219 16.6521 15.9396 17.0292L14.9292 18.376C14.6354 18.7677 14.1281 18.9406 13.6687 18.7719C11.9634 18.1449 10.4147 17.1548 9.12998 15.87C7.84522 14.5853 6.85508 13.0366 6.22812 11.3312C6.05937 10.8719 6.23229 10.3646 6.62396 10.0708L7.97083 9.06042C8.34896 8.77812 8.51979 8.29583 8.40521 7.83854L7.25312 3.23125C7.18973 2.97781 7.04346 2.75282 6.83755 2.59202C6.63165 2.43122 6.37792 2.34384 6.11667 2.34375H4.6875C4.0659 2.34375 3.46976 2.59068 3.03022 3.03022C2.59068 3.46976 2.34375 4.0659 2.34375 4.6875V7.03125Z" stroke="#353888" stroke-width="2" stroke-linecap="round" stroke-linejoin="round"/>
</svg>
