<svg width="18" height="18" viewBox="0 0 18 18" fill="none" xmlns="http://www.w3.org/2000/svg">
<path d="M3.22033 0.0525589C2.93557 0.126387 2.64377 0.288105 2.34494 0.544746C2.01448 0.829512 0.82971 2.03537 0.636351 2.28498C-0.147634 3.28693 -0.161696 4.84436 0.597679 6.85529C1.52229 9.31271 3.25549 11.8018 5.44924 13.8233C8.47268 16.6112 12.5227 18.4147 14.6074 17.9084C14.9168 17.8346 15.4301 17.5955 15.6656 17.4162C15.9047 17.2369 17.4938 15.6057 17.6414 15.3912C17.9156 14.994 18.0211 14.4631 17.9156 14.0131C17.7961 13.5104 17.7574 13.4647 16.2281 11.9319C14.6848 10.3885 14.6356 10.3498 14.1258 10.2444C13.7215 10.16 13.3102 10.2338 12.9129 10.4623C12.8215 10.5186 12.3856 10.9158 11.9461 11.3518L11.1481 12.1393L10.8914 12.0057C10.2621 11.6787 9.79807 11.3658 9.10549 10.7963C8.39533 10.2127 7.40393 9.18967 6.85549 8.47248C6.45823 7.95217 5.87463 6.9924 5.87112 6.86232C5.87112 6.83772 6.14533 6.54943 6.47932 6.22248C7.18244 5.53693 7.46018 5.21701 7.61838 4.91467C7.81526 4.53147 7.85393 4.04631 7.71682 3.64553C7.57971 3.23771 7.44612 3.08303 6.10315 1.73654C4.77424 0.407637 4.57033 0.231855 4.19065 0.101778C3.92698 0.00685501 3.49104 -0.0142384 3.22033 0.0525589ZM4.03596 1.04045C4.1344 1.0967 4.6969 1.62756 5.45276 2.38693C6.82033 3.75803 6.87307 3.82131 6.86955 4.18342C6.86955 4.50334 6.78518 4.61584 5.8676 5.53342C5.40354 5.99397 4.99924 6.41936 4.97112 6.47912C4.92893 6.55295 4.91838 6.6549 4.92893 6.82717C4.93948 7.03811 4.9676 7.11897 5.18205 7.54436C5.66721 8.50764 6.30705 9.3549 7.36526 10.4377C8.41643 11.5135 9.46408 12.3151 10.5434 12.8705C10.9266 13.0674 11.0004 13.0955 11.1762 13.092C11.2957 13.092 11.4223 13.0674 11.4961 13.0287C11.5629 12.9936 11.9988 12.5858 12.4629 12.1252C13.0606 11.5311 13.3524 11.2674 13.4649 11.2182C13.6758 11.1233 13.95 11.1233 14.1434 11.2182C14.3543 11.3237 16.8399 13.8057 16.9488 14.0237C17.0086 14.1397 17.0332 14.2451 17.0332 14.3963C17.0332 14.7584 16.9594 14.8569 15.961 15.8588C14.9731 16.8502 14.8817 16.917 14.3543 17.0365C13.8446 17.149 12.9903 17.0576 12.1254 16.801C10.8071 16.4108 9.03518 15.4756 7.57619 14.3998C4.76721 12.3326 2.35549 9.17209 1.35354 6.25061C0.875413 4.86193 0.822679 3.86701 1.1883 3.12873C1.3008 2.89318 1.40627 2.77365 2.13752 2.03186C2.58752 1.57483 3.01994 1.15998 3.09377 1.10725C3.41018 0.889278 3.73362 0.864668 4.03596 1.04045Z" fill="#F2F0F5"/>
</svg>
