<svg width="72" height="40" viewBox="0 0 72 40" fill="none" xmlns="http://www.w3.org/2000/svg">
<g clip-path="url(#clip0_725_85)">
<path d="M53.0369 26.9158C53.0364 26.9155 53.0359 26.9153 53.0354 26.915L53.0272 26.9106C53.0162 26.9047 52.9971 26.8946 52.9703 26.8807C52.9166 26.853 52.8324 26.8103 52.721 26.757C52.4978 26.6501 52.1679 26.5014 51.7581 26.3432C50.95 26.0311 49.8695 25.6964 48.7042 25.5546H21.9354C20.7766 25.6964 19.696 26.031 18.8853 26.3435C18.4741 26.502 18.1426 26.651 17.9179 26.758C17.8057 26.8115 17.7209 26.8542 17.6667 26.8821C17.6396 26.8961 17.6203 26.9063 17.6091 26.9123L17.6 26.9172C17.4832 26.9813 17.3579 27.0301 17.2275 27.0624C13.592 27.9612 11.0772 26.9843 9.49603 25.6175C8.74037 24.9643 8.23728 24.2577 7.92293 23.7192C7.76459 23.4478 7.65052 23.213 7.57368 23.0393C7.53517 22.9522 7.50574 22.8799 7.48456 22.8254C7.47396 22.798 7.4654 22.7751 7.45878 22.757L7.45029 22.7333L7.4471 22.7242L7.44577 22.7203L7.44517 22.7186C7.44489 22.7177 7.44461 22.717 8.87089 22.2746L7.44461 22.717C7.29588 22.282 7.37487 21.8054 7.65708 21.4353C7.93928 21.0651 8.39056 20.846 8.87089 20.846H61.7683C62.2495 20.846 62.7014 21.0658 62.9835 21.4371C63.2656 21.8083 63.3436 22.2859 63.1932 22.7212L61.7683 22.2746C63.1932 22.7212 63.1929 22.722 63.1926 22.7228L63.192 22.7246L63.1907 22.7284L63.1874 22.7374L63.1789 22.7611C63.1735 22.7757 63.1668 22.7935 63.1588 22.8142C63.1569 22.8191 63.155 22.8241 63.1529 22.8293C63.1316 22.8837 63.102 22.9558 63.0633 23.0427C62.986 23.2159 62.8713 23.4501 62.7124 23.7207C62.3969 24.2579 61.8926 24.9625 61.1365 25.6141C59.5555 26.9768 57.0429 27.9545 53.4139 27.0629C53.2821 27.0305 53.1548 26.9807 53.0369 26.9158ZM53.0369 26.9158C53.0371 26.9159 53.0367 26.9157 53.0369 26.9158ZM70.4971 11.7151L70.4981 11.7334C70.5119 11.9453 70.4482 12.1635 70.3429 12.3249C70.2691 12.4379 70.2106 12.4741 70.1974 12.4817L64.5528 13.7231C63.9849 13.8479 63.5444 14.2748 63.4231 14.8177C63.3018 15.3607 63.5217 15.9214 63.987 16.2555C65.5794 17.3994 66.6201 19.233 66.6331 21.2905L65.8283 34.6215C65.8267 34.6489 65.8259 34.6762 65.8259 34.7035C65.8259 36.4789 64.33 37.897 62.5219 37.897H59.6288C57.8408 37.897 56.3582 36.5103 56.3253 34.7628L56.4128 33.8493C56.4511 33.4495 56.311 33.0529 56.0268 32.7564C55.7426 32.4599 55.3405 32.2911 54.919 32.2911H44.469C45.0405 31.8285 45.3981 31.1364 45.3981 30.3664C45.3981 28.9715 44.218 27.8503 42.7678 27.8503H29.244C27.7572 27.8503 26.6137 29.0068 26.6137 30.3664C26.6137 31.1405 26.9771 31.8303 27.5486 32.2911H17.0928C16.6713 32.2911 16.2692 32.4599 15.985 32.7564C15.7008 33.0529 15.5607 33.4495 15.599 33.8493L15.6864 34.7628C15.6536 36.5103 14.171 37.897 12.383 37.897H9.48988C7.68175 37.897 6.18593 36.4789 6.18593 34.7035C6.18593 34.6762 6.1851 34.6489 6.18345 34.6215L5.37865 21.2905C5.39157 19.2216 6.43126 17.4002 8.02477 16.2555C8.49009 15.9214 8.70999 15.3607 8.58871 14.8177C8.46742 14.2748 8.02691 13.8479 7.45903 13.7231L1.8276 12.4847C1.8185 12.4796 1.75013 12.4447 1.66497 12.315C1.55804 12.1522 1.48975 11.9288 1.50126 11.7025C1.50531 11.6254 1.51792 11.5669 1.53187 11.524L7.70685 12.8806C7.71665 12.8856 7.74849 12.9041 7.79522 12.9547C7.87172 13.0375 7.95185 13.1703 7.99795 13.3389C8.14607 13.8804 8.61253 14.2897 9.19133 14.386C9.77014 14.4824 10.3547 14.2479 10.6868 13.7864C12.0648 11.8714 13.9571 9.38531 15.9225 7.21513C16.9054 6.12993 17.8892 5.1431 18.821 4.35222C19.7637 3.55215 20.5811 3.01508 21.234 2.74966C21.4861 2.65387 24.3019 1.70654 35.9992 1.70654C47.7961 1.70654 50.5521 2.67051 50.743 2.74649C51.3967 3.01054 52.2166 3.5491 53.1634 4.35366C54.0955 5.14576 55.0798 6.13425 56.0637 7.22128C58.0313 9.39514 59.9273 11.885 61.3134 13.8019C61.6463 14.2624 62.2305 14.4955 62.8086 14.3987C63.3867 14.3019 63.8524 13.8929 64.0004 13.3518C64.0465 13.1834 64.1266 13.0505 64.2031 12.9676C64.2498 12.9171 64.2817 12.8986 64.2915 12.8935L70.4679 11.5367C70.4812 11.5796 70.4931 11.6381 70.4971 11.7151ZM21.5257 3.23537C21.4845 3.24858 21.444 3.26349 21.4042 3.28006C20.664 3.58789 19.9065 4.13137 19.1903 4.7398C18.4539 5.36546 17.6725 6.1371 16.8833 6.9855C15.3041 8.68336 13.629 10.7593 12.1311 12.7572C11.8047 13.1927 11.7611 13.7654 12.0182 14.2411C12.2753 14.7169 12.7901 15.0158 13.3519 15.0158H58.6599C59.2211 15.0158 59.7354 14.7174 59.9928 14.2425C60.2502 13.7674 60.2077 13.1954 59.8825 12.7596C58.3909 10.761 56.7221 8.68776 55.1459 6.99101C54.3582 6.14312 53.5775 5.37179 52.8406 4.74547C52.1233 4.13574 51.3658 3.59237 50.6253 3.28182C50.5841 3.26455 50.5422 3.24905 50.4995 3.23537C49.9735 3.06669 46.8481 2.25442 36.0126 2.25442C25.1634 2.25442 22.0516 3.06672 21.5257 3.23537Z" stroke="#F73639" stroke-width="3" stroke-linejoin="round"/>
</g>
<defs>
<clipPath id="clip0_725_85">
<rect width="72" height="40" fill="white"/>
</clipPath>
</defs>
</svg>
