<svg width="16" height="16" viewBox="0 0 16 16" fill="none" xmlns="http://www.w3.org/2000/svg">
<path d="M8 0C3.6 0 0 3.6 0 8C0 12.4 3.6 16 8 16C12.4 16 16 12.4 16 8C16 3.6 12.4 0 8 0ZM11.92 4.88L10.56 11.44C10.48 11.92 10.16 12 9.84 11.76L7.76 10.16C7.28 10.64 6.8 11.04 6.72 11.2C6.56 11.28 6.48 11.44 6.32 11.44C6.08 11.44 6.08 11.28 6 11.12L5.28 8.72L3.12 8C2.64 7.84 2.64 7.52 3.2 7.28L11.36 4.16C11.68 4.08 12.08 4.24 11.92 4.88ZM10 5.6L5.44 8.48L6.16 10.88L6.32 9.28L10.24 5.76C10.48 5.52 10.32 5.52 10 5.6Z" fill="#F2F0F5"/>
</svg>
