<svg width="24" height="24" viewBox="0 0 24 24" fill="none" xmlns="http://www.w3.org/2000/svg">
<path d="M0.426563 3.07969C0.342188 3.12187 0.215625 3.23906 0.145313 3.34687L0.0234375 3.53437V4.73438V5.93437L0.15 6.12656C0.375 6.46875 0.464063 6.49219 1.86563 6.50625L3.09375 6.52031V8.35781L3.08906 10.1953L2.42344 10.6406C1.94531 10.9594 1.74844 11.1187 1.72969 11.2031C1.6875 11.3578 1.6875 12.6422 1.72969 12.7969C1.74844 12.8812 1.94531 13.0406 2.42344 13.3594L3.08906 13.8047L3.09375 14.2734C3.09844 14.5312 3.12188 14.8172 3.15469 14.9062C3.22031 15.0984 3.39844 15.1828 3.59531 15.1125C3.76875 15.0562 3.83906 14.8406 3.83906 14.3766L3.84375 14.0156H4.10156H4.35938V15.7734V17.5312H4.10625H3.85313L3.83906 16.9406C3.82031 16.3641 3.81563 16.35 3.68906 16.2375C3.525 16.0969 3.4125 16.0969 3.24844 16.2375C3.12188 16.35 3.11719 16.3641 3.09844 16.9406L3.08438 17.5312H1.84219C0.435938 17.5312 0.365625 17.5453 0.15 17.8734L0.0234375 18.0656V19.2656V20.4656L0.15 20.6578C0.215625 20.7609 0.351562 20.8828 0.454688 20.9344C0.623438 21.0187 0.782813 21.0234 4.10156 21.0234C7.42031 21.0234 7.57969 21.0187 7.74844 20.9344C7.85156 20.8828 7.9875 20.7609 8.05313 20.6578L8.17969 20.4656V19.2656V18.0656L8.05313 17.8734C7.8375 17.5453 7.76719 17.5312 6.35625 17.5312H5.10938L5.11875 15.6937L5.13281 13.8562L6.13594 13.4203L7.14375 12.9844H9.39375H11.6484L11.6953 13.0875C11.7234 13.1437 11.8125 13.2422 11.9016 13.2984C12.0563 13.4016 12.0938 13.4062 13.2375 13.4062L14.4141 13.4109L14.5359 13.6078C14.6953 13.875 14.9156 13.9734 15.4031 14.0062C15.7828 14.0297 15.7875 14.0297 15.8156 14.1609C15.8531 14.3672 16.1156 14.625 16.3359 14.6719C16.4391 14.6953 16.8984 14.7187 17.3578 14.7187H18.1875V16.125V17.5312H16.9406C15.5297 17.5312 15.4594 17.5453 15.2438 17.8734L15.1172 18.0656V19.2656V20.4656L15.2438 20.6578C15.3094 20.7609 15.4453 20.8828 15.5484 20.9344C15.7172 21.0187 15.8766 21.0234 19.1953 21.0234C22.5141 21.0234 22.6734 21.0187 22.8422 20.9344C22.9453 20.8828 23.0813 20.7609 23.1469 20.6578L23.2734 20.4656V19.2656V18.0656L23.1469 17.8734C22.9313 17.5453 22.8609 17.5312 21.45 17.5312H20.2031V16.1109L20.2078 14.6953L20.3578 14.6016C20.6391 14.4234 20.7188 14.2406 20.7188 13.7766V13.3641L21.0281 13.1906C21.45 12.9562 21.5156 12.8766 21.5156 12.6V12.375H21.7969H22.0781V13.2891C22.0781 14.2031 22.0781 14.2078 22.1953 14.3203C22.3406 14.4703 22.5188 14.4703 22.6641 14.3203C22.7766 14.2125 22.7812 14.175 22.7812 13.6969V13.1812L22.9969 13.1297C23.6109 12.975 24 12.5344 24 12C24 11.4656 23.6109 11.025 22.9969 10.8703L22.7812 10.8187V10.3031C22.7812 9.825 22.7766 9.7875 22.6641 9.67969C22.5188 9.52969 22.3406 9.52969 22.1953 9.67969C22.0781 9.79219 22.0781 9.79688 22.0781 10.7344V11.6719H21.7969H21.5156V11.4234C21.5156 11.1234 21.4594 11.0484 21.0281 10.8094L20.7188 10.6359V10.2234C20.7188 9.75937 20.6391 9.57656 20.3578 9.39844L20.2078 9.30469L20.2031 7.9125V6.52031L21.4359 6.50625C22.8328 6.49219 22.9219 6.46875 23.1469 6.12656L23.2734 5.93437V4.73438V3.53437L23.1469 3.34219C22.9078 2.98125 23.1234 3 19.1953 3C15.2672 3 15.4828 2.98125 15.2438 3.34219L15.1172 3.53437V4.73438V5.93437L15.2438 6.12656C15.4688 6.46875 15.5578 6.49219 16.9594 6.50625L18.1875 6.52031V7.92656V9.32812H17.2078H16.2281L16.0781 9.45C15.9141 9.59062 15.7969 9.79219 15.7969 9.9375C15.7969 10.0266 15.7688 10.0312 15.3938 10.0312C14.8969 10.0312 14.7047 10.1109 14.5359 10.3875L14.4141 10.5891L13.1859 10.6031L11.9578 10.6172L11.8172 10.7531C11.7375 10.8328 11.6719 10.9219 11.6719 10.9547C11.6719 11.0062 11.2453 11.0156 9.40781 11.0156H7.14375L6.13594 10.5797L5.13281 10.1437L5.11875 8.33437L5.10938 6.52031L6.3375 6.50625C7.73906 6.49219 7.82813 6.46875 8.05313 6.12656L8.17969 5.93437V4.73438V3.53437L8.05313 3.34219C7.82344 2.99531 7.84688 3 5.67656 3C3.75938 3 3.75469 3 3.65625 3.10312C3.50156 3.26719 3.53438 3.44062 3.76406 3.66562C3.76875 3.67031 4.60781 3.68906 5.625 3.70312L7.47656 3.72656L7.49063 4.06406L7.50469 4.40625H4.10156H0.698438L0.7125 4.06406L0.726562 3.72656L1.57031 3.69844C2.03438 3.68437 2.41875 3.67031 2.42344 3.66562C2.63906 3.49219 2.68125 3.2625 2.53125 3.10312C2.4375 3.00469 2.4 3 1.50938 3C0.745313 3 0.557813 3.01406 0.426563 3.07969ZM22.5844 4.06406L22.5984 4.40625H19.1953H15.7969V4.0875C15.7969 3.90937 15.8109 3.75 15.8297 3.73594C15.8438 3.71719 17.3719 3.70781 19.2141 3.7125L22.5703 3.72656L22.5844 4.06406ZM7.5 5.41406C7.5 5.6625 7.48594 5.72344 7.41094 5.76562C7.35 5.79375 6.22969 5.8125 4.10156 5.8125C1.97344 5.8125 0.853125 5.79375 0.792188 5.76562C0.717188 5.72344 0.703125 5.6625 0.703125 5.41406V5.10937H4.10156H7.5V5.41406ZM22.5938 5.41406C22.5938 5.6625 22.5797 5.72344 22.5047 5.76562C22.4438 5.79375 21.3234 5.8125 19.1953 5.8125C17.0672 5.8125 15.9469 5.79375 15.8859 5.76562C15.8109 5.72344 15.7969 5.6625 15.7969 5.41406V5.10937H19.1953H22.5938V5.41406ZM4.35938 8.27344V10.0312H4.10156H3.84375V8.27344V6.51562H4.10156H4.35938V8.27344ZM19.4531 7.92187V9.32812H19.1953H18.9375V7.92187V6.51562H19.1953H19.4531V7.92187ZM20.0156 10.4906C20.0156 11.0297 20.0297 11.0484 20.5031 11.3156L20.8125 11.4891V12V12.5109L20.5031 12.6844C20.025 12.9516 20.0156 12.9656 20.0156 13.5328V14.0156H18.2578H16.5V13.3828C16.5 12.7687 16.4953 12.7406 16.3828 12.6328C16.3219 12.5672 16.2141 12.5156 16.1484 12.5156C16.0828 12.5156 15.975 12.5672 15.9141 12.6328C15.8156 12.7266 15.7969 12.7922 15.7969 13.0312V13.3125H15.525C15.0703 13.3125 15.0891 13.3781 15.1031 11.9766L15.1172 10.7578L15.4594 10.7437L15.7969 10.7297V11.0391C15.7969 11.3062 15.8109 11.3625 15.9141 11.4609C15.975 11.5266 16.0828 11.5781 16.1484 11.5781C16.2141 11.5781 16.3219 11.5266 16.3828 11.4609C16.4953 11.3531 16.5 11.325 16.5 10.6875V10.0312H18.2578H20.0156V10.4906ZM5.70938 11.1609L6.70313 11.5875V12V12.4125L5.65313 12.8625L4.60313 13.3125H4.11094H3.61875L3.02813 12.9234L2.4375 12.5391V12V11.4609L2.99063 11.1L3.53906 10.7344H4.125H4.71094L5.70938 11.1609ZM14.3906 12V12.7031H13.3594H12.3281V12V11.2969H13.3594H14.3906V12ZM23.1938 11.7516C23.4 11.9766 23.2688 12.3047 22.9359 12.4125L22.7812 12.4641V12V11.5359L22.9359 11.5875C23.0156 11.6109 23.1328 11.6859 23.1938 11.7516ZM11.625 12V12.2812H9.53906H7.45313V12V11.7188H9.53906H11.625V12ZM19.4531 16.125V17.5312H19.1953H18.9375V16.125V14.7187H19.1953H19.4531V16.125ZM7.49063 18.5953L7.50469 18.9375H4.10156H0.703125V18.6187C0.703125 18.4406 0.717188 18.2812 0.735938 18.2672C0.75 18.2484 2.27813 18.2391 4.12031 18.2437L7.47656 18.2578L7.49063 18.5953ZM22.5844 18.5953L22.5984 18.9375H20.5031C18.6188 18.9375 18.3984 18.9469 18.3188 19.0172C18.1969 19.125 18.2063 19.4109 18.3328 19.5281C18.4266 19.6125 18.5438 19.6172 20.5125 19.6312L22.5938 19.6453V19.9453C22.5938 20.1937 22.5797 20.2547 22.5047 20.2969C22.3781 20.3625 16.0125 20.3625 15.8859 20.2969C15.8109 20.2547 15.7969 20.1937 15.7969 19.95V19.65L16.425 19.6312C17.1469 19.6125 17.25 19.5703 17.25 19.275C17.25 18.9656 17.1797 18.9375 16.4438 18.9375H15.7969V18.6187C15.7969 18.4406 15.8109 18.2812 15.8297 18.2672C15.8438 18.2484 17.3719 18.2391 19.2141 18.2437L22.5703 18.2578L22.5844 18.5953ZM7.5 19.9453C7.5 20.1937 7.48594 20.2547 7.41094 20.2969C7.28438 20.3625 0.91875 20.3625 0.792188 20.2969C0.717188 20.2547 0.703125 20.1937 0.703125 19.9453V19.6406H4.10156H7.5V19.9453Z" fill="#F73639"/>
</svg>
