<svg width="18" height="18" viewBox="0 0 18 18" fill="none" xmlns="http://www.w3.org/2000/svg">
<path d="M1.44844 0.0679722C1.10742 0.159391 0.840234 0.314098 0.576562 0.574289C0.312891 0.841511 0.158203 1.10522 0.0703125 1.46034C0 1.72756 0 1.86469 0 8.99883C0 16.133 0 16.2701 0.0703125 16.5373C0.158203 16.8924 0.312891 17.1561 0.576562 17.4234C0.84375 17.6871 1.10742 17.8418 1.4625 17.9297C1.72969 18 1.8668 18 9 18C16.1332 18 16.2703 18 16.5375 17.9297C16.8926 17.8418 17.1562 17.6871 17.4234 17.4234C17.6871 17.1561 17.8418 16.8924 17.9297 16.5373C18 16.2701 18 16.133 18 8.99883C18 1.86469 18 1.72756 17.9297 1.46034C17.8383 1.09818 17.6871 0.837996 17.4059 0.560225C17.1281 0.289486 16.9066 0.159391 16.5375 0.0679722C16.2703 -0.00234985 16.1262 -0.00234985 8.98594 0.0011673C1.91953 0.0011673 1.69805 0.00468254 1.44844 0.0679722ZM8.09297 5.0151C8.95078 6.26683 9.66797 7.29352 9.68906 7.29704C9.70664 7.30056 10.575 6.30902 11.6191 5.09246C12.6633 3.87589 13.5492 2.84568 13.5914 2.807C13.6582 2.74371 13.7074 2.7402 14.1855 2.74723L14.7059 2.75778L12.498 5.32452C11.2852 6.73447 10.2656 7.9229 10.2305 7.96158C10.1672 8.0319 10.2129 8.10222 12.6422 11.6359C14.0027 13.619 15.1172 15.2434 15.1172 15.2469C15.1172 15.2539 14.298 15.2575 13.2961 15.2575H11.475L9.81211 12.8314C8.89453 11.4988 8.13516 10.4123 8.12461 10.4228C8.11055 10.4299 7.16836 11.5199 6.0293 12.8454L3.95508 15.2575H3.41719H2.87578L3.01641 15.0887C3.09375 14.9973 4.16953 13.7455 5.40703 12.311L7.65703 9.69501L5.59687 6.70282C4.46836 5.05378 3.39258 3.48912 3.20977 3.2219L2.8793 2.7402H4.70391H6.53203L8.09297 5.0151Z" fill="#F2F0F5"/>
<path d="M4.40137 3.62629C4.55605 3.86187 11.9318 14.4031 11.967 14.4418C11.9986 14.4734 12.2025 14.484 12.8248 14.4769L13.6369 14.4664L9.82949 9.01644L6.01855 3.56651L5.18535 3.55597L4.34863 3.54893L4.40137 3.62629Z" fill="#F2F0F5"/>
</svg>
