<svg width="18" height="18" viewBox="0 0 18 18" fill="none" xmlns="http://www.w3.org/2000/svg">
<g clip-path="url(#clip0_736_509)">
<path d="M1.27578 0.0492115C0.671094 0.196867 0.164844 0.71718 0.0382812 1.3289C-0.0179687 1.59257 -0.0179687 16.4074 0.0382812 16.6711C0.168359 17.2969 0.702734 17.8312 1.32852 17.9613C1.59219 18.0176 16.407 18.0176 16.6707 17.9613C17.2965 17.8312 17.8309 17.2969 17.9609 16.6711C18.0172 16.4074 18.0172 1.59257 17.9609 1.3289C17.8309 0.703117 17.2965 0.168741 16.6707 0.0386639C16.3859 -0.021101 1.52187 -0.0105553 1.27578 0.0492115ZM10.4762 4.92187C11.5168 4.97109 12.5117 5.05195 12.8492 5.11874C13.4258 5.22773 14.0199 5.62499 14.252 6.04687C14.4629 6.43359 14.6035 7.61835 14.6035 8.99999C14.6035 10.3816 14.4629 11.5664 14.252 11.9531C14.0445 12.3363 13.4645 12.7441 12.9582 12.8637C12.7578 12.9129 12.0406 12.9867 11.1441 13.05C10.3145 13.1062 7.63555 13.1062 6.85508 13.05C5.23438 12.9305 5.00234 12.8918 4.58047 12.6879C4.20078 12.5086 3.87031 12.2027 3.72969 11.9039C3.6207 11.6789 3.5293 11.1973 3.43789 10.3711C3.38164 9.84726 3.38164 8.15273 3.43789 7.6289C3.575 6.37382 3.67695 6.03632 4.01445 5.70585C4.4293 5.30155 4.8793 5.12577 5.70547 5.04843C7.24883 4.90077 9.02773 4.85507 10.4762 4.92187Z" fill="#F2F0F5"/>
<path d="M7.66406 8.99999V11.148L7.79766 11.0672C8.58516 10.5961 11.1445 9.01406 11.1445 8.99999C11.1445 8.98593 8.56406 7.39335 7.79766 6.93281L7.66406 6.85195V8.99999Z" fill="#F2F0F5"/>
</g>
<defs>
<clipPath id="clip0_736_509">
<rect width="18" height="18" fill="white"/>
</clipPath>
</defs>
</svg>
